<svg width="161" height="49" viewBox="0 0 161 49" fill="none" xmlns="http://www.w3.org/2000/svg">
<g clip-path="url(#clip0_42_264)">
<path d="M138.034 0.0283203H138.561C139.189 0.431824 139.427 1.18992 139.772 1.81784C144.533 10.8449 149.3 19.8679 154.066 28.8925C156.37 33.289 158.72 37.662 161 42.0704V42.1564C160.864 42.4048 160.756 42.7952 160.406 42.7604C158.091 42.7678 155.772 42.7725 153.458 42.7582C152.902 42.7808 152.752 42.1673 152.543 41.7721C152.121 40.9626 151.667 40.1735 151.287 39.3428C150.638 38.2268 150.126 37.0378 149.476 35.923C148.977 34.82 148.332 33.7969 147.829 32.6961C147.519 32.0299 147.111 31.4163 146.803 30.7492C146.347 29.7583 145.756 28.8403 145.312 27.8424C144.644 26.6702 144.09 25.437 143.422 24.2646C142.952 23.2141 142.327 22.2461 141.853 21.1978C141.522 20.4769 141.078 19.8143 140.749 19.0912C140.32 18.1527 139.749 17.2895 139.34 16.3419C139.136 15.9753 138.995 15.4656 138.566 15.3188C138.29 15.2961 137.903 15.2257 137.747 15.5254C137.026 16.6988 136.497 17.9794 135.802 19.1683C135.304 20.2704 134.654 21.2932 134.154 22.3939C133.857 23.0337 133.466 23.6234 133.166 24.2609C132.939 24.7398 132.708 25.2171 132.439 25.6744C131.963 26.486 131.624 27.3706 131.143 28.1788C130.723 28.8879 130.424 29.6626 130.005 30.3717C129.566 31.1034 129.259 31.9055 128.826 32.6398C128.331 33.4754 127.982 34.3886 127.485 35.2231C127.066 35.9323 126.769 36.7058 126.349 37.4149C125.909 38.1466 125.603 38.9487 125.17 39.683C124.704 40.4694 124.362 41.3219 123.923 42.1218C123.773 42.3593 123.629 42.6577 123.335 42.7268C122.882 42.808 122.418 42.7602 121.96 42.7662C120.19 42.7649 118.42 42.7592 116.649 42.7723C116.329 42.7662 115.944 42.771 115.725 42.4918C115.656 42.1873 115.681 41.8578 115.845 41.5894C123.067 27.8914 130.303 14.2025 137.532 0.506982C137.643 0.29716 137.842 0.158583 138.034 0.0284018L138.034 0.0283203ZM0.000322264 6.6069C0.495641 6.07835 1.24692 6.25125 1.88734 6.2334C8.33543 6.2369 14.7819 6.2334 21.2304 6.2347C23.1268 6.17006 25.0469 6.46009 26.8269 7.13235C29.8227 8.21978 32.4008 10.662 33.3704 13.7682C33.7997 14.9464 33.8928 16.2144 33.9791 17.4559C33.9001 18.7855 33.7408 20.1369 33.2442 21.382C32.6484 22.8394 31.7887 24.2434 30.5068 25.1805C30.1978 25.4823 29.7187 25.6103 29.4935 25.9899C31.1992 26.613 32.6664 27.7934 33.7726 29.2343C35.5913 31.6409 36.0973 34.8258 35.7883 37.7804C35.6256 39.7285 35.0723 41.6623 34.0675 43.3398C33.3966 44.3829 32.5686 45.339 31.5637 46.0649C29.3699 47.7123 26.6548 48.4714 23.9738 48.7841C23.4244 48.8596 22.8604 48.8188 22.3213 48.9716H0.491935C0.31034 48.8236 0.141635 48.6589 0 48.4701V6.60682M7.23707 12.7272C7.03066 12.9826 7.08722 13.3312 7.07562 13.6369C7.09415 16.8087 7.04734 19.9815 7.09898 23.1523C7.29121 23.3949 7.58609 23.5608 7.8986 23.544C12.0669 23.5474 16.2364 23.5391 20.404 23.5487C20.9844 23.5739 21.5553 23.4509 22.1274 23.3698C23.4247 23.1787 24.7209 22.6593 25.6258 21.6688C26.2448 21.0456 26.5268 20.1811 26.7354 19.3456C26.7861 18.6689 26.9997 17.9894 26.8135 17.3137C26.7238 16.1703 26.2649 15.059 25.4994 14.2101C24.4273 13.2265 22.9919 12.7561 21.5767 12.5829C21.1238 12.5377 20.6637 12.6058 20.2143 12.5151C19.6553 12.3931 19.0832 12.4517 18.5171 12.4447C15.0955 12.4409 11.674 12.4482 8.25381 12.4399C7.89755 12.4399 7.54129 12.539 7.23699 12.7274M7.46926 29.9102C7.33013 29.9545 7.19695 30.0379 7.15449 30.1895C6.90313 30.6814 6.95501 31.2473 6.95751 31.7819C6.96226 35.0457 6.95405 38.3095 6.96097 41.5728C6.9679 42.0396 7.22499 42.7009 7.78081 42.6436C12.1849 42.6458 16.5899 42.6411 20.9936 42.6449C21.4361 42.6602 21.8782 42.6449 22.3147 42.5637C23.8643 42.43 25.4685 42.116 26.7742 41.2124C27.8238 40.4602 28.4007 39.2165 28.6248 37.9641C28.9219 36.5185 28.8111 35.0059 28.396 33.595C28.0243 32.5064 27.2906 31.5145 26.2622 30.9869C24.9036 30.2299 23.3445 30.0033 21.8217 29.8717C17.1807 29.8729 12.5397 29.8729 7.89828 29.8717C7.75424 29.8683 7.61027 29.8811 7.46902 29.9099L7.46926 29.9102ZM42.9782 6.26812C43.4688 6.18693 43.9701 6.24424 44.4655 6.2347C51.3064 6.2334 58.148 6.23821 64.9905 6.23217C68.0829 6.39227 71.2249 7.4867 73.4588 9.71918C75.1573 11.418 76.181 13.7492 76.4262 16.1402C76.4214 17.0868 76.4652 18.0361 76.4004 18.9814C76.1067 21.0108 75.3187 23.0544 73.8091 24.4748C73.3823 24.9273 72.9187 25.3477 72.3762 25.653C72.2642 25.7485 72.0269 25.7962 72.0967 25.9898C73.8327 26.706 75.4003 27.9033 76.4794 29.4635C76.9429 30.107 77.2765 30.8327 77.5975 31.5575C78.2355 33.015 78.3547 34.6277 78.4479 36.1988C78.3689 37.4139 78.2968 38.6398 78.0104 39.8288C77.5929 41.9011 76.5279 43.8218 75.0405 45.2996C74.4331 45.8072 73.8198 46.3157 73.1381 46.7191C71.2156 47.9103 68.9783 48.4609 66.763 48.7567C66.1452 48.8631 65.5083 48.8058 64.8983 48.9716H43.0835C42.7439 48.7711 42.4151 48.4548 42.4585 48.0189C42.4611 34.409 42.4611 20.7983 42.4585 7.18835C42.4444 6.81232 42.6662 6.45879 42.9787 6.26812M50.2866 12.485C50.06 12.5388 49.8137 12.6223 49.6921 12.8407C49.481 13.1428 49.541 13.5295 49.5329 13.8768C49.5436 16.7825 49.5364 19.6881 49.5351 22.5925C49.5152 22.9711 49.7642 23.2982 50.0493 23.514C50.8974 23.5895 51.7526 23.5227 52.6041 23.544C56.2227 23.5418 59.8399 23.5488 63.4588 23.5418C64.6726 23.4033 65.9286 23.2431 66.9936 22.589C68.0907 22.0901 68.784 21.0096 69.1566 19.891C69.4373 18.9863 69.3407 18.0301 69.3455 17.0978C69.2652 16.4364 69.0566 15.7858 68.7592 15.1913C67.9088 13.7145 66.2708 12.9006 64.6454 12.6605C64.0061 12.4981 63.3421 12.6319 62.7004 12.4981C62.2098 12.4016 61.7097 12.4494 61.2156 12.4447C57.715 12.4408 54.2146 12.4482 50.7146 12.4399C50.5695 12.4408 50.427 12.4552 50.2866 12.4851M50.0493 29.9124C49.698 29.9898 49.52 30.3648 49.5388 30.7037C49.5364 34.1273 49.541 37.5497 49.5364 40.9722C49.541 41.4082 49.4938 41.8629 49.6612 42.2771C49.7453 42.5698 50.099 42.6363 50.3609 42.6423C54.8427 42.6484 59.3254 42.6376 63.8089 42.6484C64.4012 42.6784 64.9803 42.5242 65.57 42.4968C67.0806 42.3058 68.6318 41.8654 69.7969 40.8267C70.7158 39.8896 71.1652 38.5777 71.2644 37.2814C71.382 36.6392 71.4094 35.9813 71.2786 35.3391C71.164 33.8852 70.6618 32.3332 69.4703 31.425C68.0292 30.2991 66.1608 30.0389 64.4012 29.8717C59.9191 29.873 55.4359 29.873 50.954 29.8717C50.6522 29.8791 50.3453 29.8466 50.0492 29.9125L50.0493 29.9124ZM78.7068 7.14059C78.4934 6.70366 78.9158 6.17829 79.3747 6.23209C81.5776 6.23079 83.7821 6.24293 85.9863 6.22728C86.2425 6.21424 86.5254 6.25117 86.6622 6.50435C87.1847 7.31601 87.6071 8.19092 88.0269 9.06126C88.2923 9.61753 88.6318 10.1334 88.8975 10.6897C89.3868 11.7628 90.0204 12.7594 90.505 13.8351C91.1536 14.951 91.6666 16.1401 92.3156 17.2552C92.8719 18.4608 93.5716 19.5903 94.121 20.7993C94.5988 21.6446 95.0327 22.5125 95.4657 23.3826C96.0152 24.2838 96.3998 25.2725 96.9424 26.1784C97.321 26.8445 97.6016 27.562 97.9932 28.2208C98.4898 29.0553 98.8375 29.9699 99.3342 30.8029C99.8261 31.6387 100.16 32.5603 100.689 33.3731C100.927 33.8243 101.703 33.8256 101.941 33.3731C102.468 32.559 102.803 31.6387 103.295 30.8029C103.734 30.0724 104.042 29.2712 104.474 28.5359C104.97 27.7004 105.319 26.7872 105.815 25.9517C106.306 25.0837 106.688 24.1561 107.206 23.3028C107.81 22.0217 108.539 20.808 109.134 19.5234C109.623 18.6841 110.034 17.8043 110.48 16.9426C111.002 16.0915 111.362 15.1543 111.873 14.2984C112.314 13.532 112.637 12.7047 113.084 11.9418C113.537 11.1849 113.853 10.3554 114.307 9.59854C114.914 8.56589 115.305 7.40331 116.022 6.43759C116.185 6.18318 116.505 6.24049 116.762 6.22614C118.926 6.24652 121.092 6.22997 123.256 6.23217C123.55 6.19875 123.797 6.39716 123.936 6.64424C124.074 7.05589 123.778 7.4307 123.592 7.76989C116.71 20.7839 109.848 33.8085 102.969 46.8242C102.575 47.5677 102.242 48.3758 101.632 48.9716H101.113C100.331 48.4762 100.068 47.5104 99.6213 46.7443C92.6473 33.5452 85.6882 20.3348 78.7072 7.14059H78.7068Z" fill="white"/>
</g>
<defs>
<clipPath id="clip0_42_264">
<rect width="161" height="49" fill="white"/>
</clipPath>
</defs>
</svg>
