<svg width="39" height="46" viewBox="0 0 39 46" fill="none" xmlns="http://www.w3.org/2000/svg">
<path d="M36.0261 35.7545C30.3071 42.2779 22.0825 44.5131 11.1981 44.5131C6.65989 44.5131 4.65682 43.2093 3.52369 41.6153C2.93854 40.7921 2.56195 39.8601 2.20773 38.8876C2.15515 38.7432 2.10287 38.5973 2.05029 38.4505C1.7649 37.6541 1.47054 36.8325 1.07035 36.098C0.397309 32.887 0.545359 28.6904 1.32239 23.9794C2.10118 19.2578 3.50548 14.0561 5.31024 8.87684C8.86187 3.22867 14.533 1.1915 19.9652 1.00562C25.4006 0.819629 30.5008 2.49289 32.834 4.16371C34.4667 6.06197 35.5535 8.71807 36.296 11.7743C37.0427 14.8483 37.4306 18.2815 37.6946 21.6676L37.7005 21.7431C37.9248 24.6186 38.1415 27.3974 37.9786 29.8392C37.814 32.3063 37.2657 34.3406 36.0261 35.7545Z" fill="#C4CF87" stroke="#C8D4AF"/>
</svg>
