<svg width="960" height="351" viewBox="0 0 960 351" fill="none" xmlns="http://www.w3.org/2000/svg">
<path d="M957.621 193.257C941.077 226.189 911.105 265.488 852.039 296.56C792.963 327.637 704.756 350.5 571.723 350.5C544.927 350.008 518.3 349.758 492.232 349.512C400.986 348.654 316.585 347.861 255.739 336.99C146.656 300.448 57.0324 225.012 0.500276 144.001C0.590221 118.346 22.7569 96.3088 58.4941 77.7248C94.2602 59.1256 143.419 44.0934 196.94 32.407C303.968 9.03734 428.308 -0.924785 497.541 0.663122C614.394 12.2551 721.586 53.2737 815.425 94.496L816.762 95.0831C856.301 112.452 895.122 129.505 922.302 145.97C936.05 154.298 946.772 162.449 953.106 170.38C959.429 178.298 961.315 185.904 957.621 193.257Z" stroke="white"/>
</svg>
