<svg width="198" height="233" viewBox="0 0 198 233" fill="none" xmlns="http://www.w3.org/2000/svg">
<path d="M197.5 47.4642C197.5 64.8925 194.532 78.6832 188.676 90.9276C182.818 103.177 174.055 113.91 162.419 125.204C152.365 134.962 140.187 145.121 125.907 157.033C123.653 158.913 121.347 160.837 118.989 162.809C101.7 177.271 81.6205 194.351 58.8211 216.121C48.4839 223.668 39.6726 228.752 32.2773 231.069C24.8864 233.384 18.9833 232.917 14.3646 229.474C9.71583 226.007 6.25452 219.446 3.96432 209.301C1.67707 199.17 0.576417 185.549 0.576417 168.075C0.576417 163.497 0.557878 158.823 0.539089 154.087C0.414205 122.606 0.278266 88.3386 5.50106 60.6737C8.50498 44.7622 13.272 31.096 20.7879 21.4164C28.2845 11.7616 38.5289 6.05312 52.5798 6.05312C65.018 6.05312 78.9691 4.7136 93.1506 3.35196C95.2074 3.15447 97.2691 2.95651 99.3318 2.76211C115.632 1.2258 131.998 -0.0894371 146.579 0.7747C161.167 1.63928 173.892 4.68236 182.964 11.7968C192.008 18.889 197.5 30.0909 197.5 47.4642Z" stroke="white"/>
</svg>
