<svg width="233" height="68" viewBox="0 0 233 68" fill="none" xmlns="http://www.w3.org/2000/svg">
<path d="M166.101 24.0882C166.101 24.4849 166.101 24.8816 166.559 25.2783C167.018 24.6171 167.82 24.4849 167.934 24.4849C167.59 23.8238 166.903 24.4849 166.101 24.0882ZM165.643 15.097C165.643 15.7581 166.101 16.0225 166.216 16.1548C166.674 16.5514 166.903 16.5514 167.361 16.1548C167.82 16.5514 167.934 15.7581 168.049 16.1548C168.049 17.2126 168.049 17.7415 167.934 18.667C167.82 19.857 166.903 19.7248 166.101 20.2537C166.101 20.7826 165.643 21.7082 166.101 22.2371C166.559 21.8404 166.903 21.7082 167.59 21.3115C167.59 20.7826 168.049 20.2537 168.736 19.857C168.736 18.2703 169.194 16.6837 169.194 15.097C169.194 14.7003 168.851 14.3036 168.392 14.0392H164.727C164.727 14.7003 165.185 15.097 165.643 15.097ZM174.464 24.6171L176.067 25.4105V24.4849H174.578L174.464 24.6171ZM164.039 11.1302C164.727 10.6013 166.216 9.4113 167.018 9.01462C166.903 7.2957 165.185 7.03125 164.383 6.37013H163.81C162.55 6.89903 162.206 8.3535 162.092 9.54352C162.55 11.1302 163.467 10.0724 164.039 11.1302ZM170.454 10.998C170.111 10.6013 169.194 11.1302 168.736 11.3947C168.049 11.5269 167.59 12.0558 167.59 12.5847H169.309C169.538 12.0558 170.111 11.3947 170.454 10.998ZM173.662 15.097H173.318C173.662 16.5514 173.662 18.1381 173.662 19.7248C174.235 19.857 174.922 20.2537 174.922 21.3115C175.495 21.7082 176.067 21.8404 176.755 22.3693C176.984 22.2371 177.213 21.7082 177.327 21.1793C176.755 20.2537 175.38 20.7826 175.38 19.1959L174.464 18.7992C174.464 17.7414 174.464 16.6837 174.235 16.0225L174.464 15.7581C174.464 16.0225 174.578 16.1548 174.922 16.5514C175.495 16.5514 176.067 16.6837 176.755 16.1548C176.984 16.0225 176.984 15.097 177.327 15.097C177.671 15.097 177.9 15.097 178.129 14.7003C178.129 14.7003 178.473 14.7003 178.129 14.5681L174.693 14.0392C174.464 14.5681 173.662 14.5681 173.662 15.097ZM173.204 11.1302C173.891 11.1302 173.662 12.4525 174.235 12.5847H175.609C175.609 12.0558 175.495 12.0558 175.38 12.0558C174.578 12.0558 174.578 10.6013 173.891 10.998C173.662 10.998 173.318 10.6013 172.86 10.998C172.86 11.1302 172.86 11.1302 173.204 11.1302ZM179.389 12.0558H179.848C180.306 11.5269 180.535 12.0558 180.879 11.5269C181.222 10.6013 181.222 9.01462 180.535 8.08905C180.306 7.42793 179.504 7.03125 178.702 6.37013L177.671 7.03125C176.984 7.42793 176.755 8.08905 176.755 9.01462C177.786 9.54352 178.931 10.998 179.389 12.0558ZM172.745 58.07L171.027 58.4666C170.569 59.1278 170.454 59.5244 170.454 59.9211L171.142 59.5244C171.371 59.5244 171.485 59.9211 171.6 60.1856C171.485 61.1111 170.569 61.1111 170.225 61.5078C169.767 63.2267 171.142 64.2845 171.371 65.739H173.204C172.402 64.1523 172.287 61.64 172.287 61.1111C172.287 60.1856 172.287 58.9955 172.745 58.07ZM174.464 59.5244C174.12 59.5244 173.662 60.5822 173.662 60.9789C173.662 62.4334 173.891 64.2845 174.464 65.739H175.609C175.609 64.1523 175.838 62.4334 175.838 60.9789C175.609 60.9789 175.953 61.2434 174.464 59.5244ZM178.129 60.1856C177.786 60.1856 176.984 60.7145 176.984 61.1111C176.984 61.9045 176.755 65.739 176.755 65.739H177.786C178.244 64.1523 179.16 62.0367 179.16 61.1111C179.16 60.45 178.702 60.1856 178.129 60.1856ZM197.947 59.1278C198.634 59.5244 198.634 60.45 198.634 60.5822C198.634 61.1111 198.291 61.64 197.947 62.0367C197.718 61.64 197.718 61.1111 197.374 60.5822C197.03 60.5822 196.916 61.5078 196.916 61.9045C196.916 63.4912 197.489 64.6812 197.947 65.739H199.322C199.207 64.2845 198.863 63.0945 198.863 61.5078C198.863 60.5822 199.322 59.5244 199.551 58.9955L197.947 59.1278ZM213.068 55.4255L212.151 53.8388C212.495 53.3099 212.495 52.6488 212.953 51.7232C213.068 51.7232 213.526 52.9132 213.526 53.1777C213.526 54.2355 213.526 54.4999 213.068 55.4255ZM212.037 58.9955C212.037 58.07 211.12 57.5411 210.433 55.9544L211.12 54.7644C211.579 55.0288 212.151 55.5577 212.151 56.4833C212.151 56.4833 212.037 57.0122 212.151 57.4088C212.151 57.5411 212.495 57.5411 212.495 57.9377C212.151 58.4666 212.151 58.4666 212.037 58.9955ZM209.86 50.7976C208.715 50.7976 209.402 48.2853 207.111 48.2853C206.653 48.2853 206.309 49.2109 205.736 49.3431C205.736 49.2109 205.851 48.1531 205.851 48.1531C205.851 47.7564 205.966 47.0953 206.653 46.6987C207.798 46.6987 207.569 47.2275 208.486 47.6242C208.944 47.7564 209.288 48.1531 209.86 48.1531V50.7976ZM209.059 54.4999C208.028 54.3677 208.028 52.9132 207.798 52.781C207.111 51.7232 205.966 52.6488 205.278 52.6488C204.935 51.591 205.393 51.591 205.393 50.7976C205.851 50.7976 206.309 50.4009 206.767 50.7976C207.569 50.4009 208.028 51.3265 208.715 51.3265C208.944 51.7232 209.288 52.6488 209.402 52.781C209.402 53.4421 209.288 53.7066 209.059 54.4999ZM207.569 57.0122C206.767 56.4833 206.309 56.351 205.393 56.351C205.393 55.5577 204.935 54.7644 204.591 54.7644C203.675 54.7644 203.789 55.4255 203.102 55.4255L204.476 53.8388C204.591 53.4421 204.591 53.4421 204.935 53.4421C205.393 53.8388 205.507 53.971 205.966 53.971C205.966 54.3677 205.966 54.4999 205.851 55.0288C206.309 55.4255 206.653 54.8966 206.882 55.4255C207.34 55.5577 207.798 55.8221 207.798 56.4833C207.798 56.7477 207.569 57.0122 207.569 57.0122ZM204.591 30.0383C205.278 29.6417 205.507 29.7739 205.851 30.0383C205.851 31.0961 206.882 30.5672 207.569 30.9639C207.798 31.4928 208.028 31.7573 208.142 32.5506C207.111 32.1539 206.424 31.625 205.507 31.625C205.278 31.625 203.789 32.1539 203.675 32.5506C203.216 31.7573 204.018 30.3028 204.591 30.0383ZM204.133 34.6662C204.591 34.1373 205.393 33.344 205.966 33.344C207.111 33.344 208.028 34.2695 208.028 35.1951C207.111 35.1951 206.882 34.9307 206.309 34.9307C205.507 34.9307 204.591 35.3273 204.133 36.2529C203.789 35.5918 204.018 35.1951 204.133 34.6662ZM208.944 36.914C209.402 36.914 209.746 36.6496 209.975 36.6496C210.777 36.6496 211.35 37.9718 211.579 39.0296C210.319 38.2363 208.486 37.7074 207.34 37.7074C206.767 37.7074 204.935 38.5007 204.247 39.2941L204.018 37.7074C204.935 37.4429 204.935 36.6496 205.507 36.6496C205.966 36.6496 206.653 36.3851 207.111 36.3851C207.569 36.3851 207.798 36.1207 208.028 36.1207C208.715 36.1207 208.486 36.914 208.944 36.914ZM210.662 46.9631C210.204 46.6986 209.059 46.5664 209.059 46.0375C209.059 45.2442 208.715 45.112 208.028 45.112C207.34 45.112 206.882 45.2442 205.966 45.6408C205.966 45.6408 205.507 44.9797 205.393 44.1864C205.736 44.0542 206.882 43.6575 207.569 43.6575C208.6 43.6575 209.746 43.6575 209.746 44.1864C209.746 44.9797 210.662 45.1119 210.662 46.9631ZM209.746 42.0708C209.402 41.8063 209.746 41.013 208.944 41.013C208.6 41.013 208.142 41.5419 208.142 41.5419C207.798 41.8063 206.882 41.013 206.882 41.5419C206.882 42.4675 206.309 42.8641 205.507 42.8641C205.278 42.8641 204.935 42.8641 204.591 42.5997V40.8808C206.653 40.8808 206.424 40.0874 207.34 40.0874C208.028 40.0874 208.486 40.4841 208.944 40.4841C209.746 40.4841 209.288 40.0874 209.975 40.0874C210.777 40.0874 211.12 40.8808 211.579 41.013C211.579 41.5419 212.037 42.3352 212.037 42.9964C210.891 42.9964 209.86 42.5997 209.746 42.0708ZM201.383 47.492C201.04 46.4342 200.467 45.2442 200.123 44.1864C200.123 44.0542 200.009 44.0542 200.238 43.9219C200.467 43.9219 201.04 43.9219 201.04 44.0542C201.269 44.4508 201.498 44.9797 201.498 45.5086C201.498 46.1697 201.269 46.6986 201.383 47.492ZM199.207 49.2109C198.749 49.2109 198.749 48.8142 198.749 48.1531C198.634 47.0953 198.291 46.1698 197.947 45.112C197.718 43.6575 196.916 42.4675 196.229 40.8808C196.114 40.0874 195.312 39.823 194.739 39.2941C195.541 39.2941 196.229 39.2941 196.916 39.9552C196.916 40.3519 197.03 40.4841 197.489 41.013C198.634 41.013 198.291 42.5997 199.207 43.393C198.749 43.9219 198.634 44.1864 198.291 44.583C198.749 44.9797 199.207 45.1119 199.322 45.6408C199.322 46.6986 199.207 48.0209 199.207 49.2109ZM196.801 53.4421C197.03 52.6488 197.03 50.7976 196.801 50.7976C196.458 50.6654 195.77 50.7976 195.77 50.4009C195.77 49.872 196 49.2109 196 48.8142C196 48.1531 195.541 47.7564 195.541 47.492C195.541 46.4342 196.572 46.1697 196.916 45.5086C197.03 46.1697 197.03 46.9631 197.03 47.7564C197.03 48.1531 197.489 49.2109 197.03 50.1365C197.03 50.6654 197.947 50.2687 197.947 50.7976C197.947 51.7232 197.03 52.781 196.801 53.4421ZM195.312 44.1864C195.312 44.5831 194.854 44.9797 194.739 44.9797C194.739 44.9797 193.938 44.0542 193.823 43.1286C193.708 42.4675 194.281 41.2774 194.281 41.2774C194.396 41.2774 194.625 41.5419 194.739 41.5419C194.854 41.8063 194.739 42.3352 194.854 42.8641C195.312 43.1286 195.656 43.9219 195.312 44.1864ZM193.708 51.8554C193.708 50.7976 193.479 49.872 192.907 49.2109C192.907 48.8142 193.365 48.8142 193.021 48.2853C193.021 48.2853 192.105 47.7564 192.105 47.0953C192.105 46.4342 192.792 45.7731 193.021 45.2442C193.021 45.1119 193.708 45.6409 193.708 46.6987C193.708 46.9631 193.708 47.492 193.479 47.7564C193.365 48.2853 194.396 48.2853 194.396 48.8142C194.396 49.872 193.823 50.7976 193.708 51.8554ZM192.334 38.5007C192.792 39.0296 193.365 39.823 193.365 40.3519C193.365 40.8808 193.021 41.013 192.792 41.4097C192.792 41.4097 192.105 40.4841 192.105 40.0874C192.105 39.4263 192.105 39.0296 192.334 38.5007ZM199.207 38.2363C199.551 38.5007 199.78 38.7652 200.123 39.2941V40.7485C198.749 39.823 197.947 38.2363 196.801 36.6496C197.947 36.6496 198.291 37.9718 199.207 38.2363ZM188.783 35.3273L189.928 34.6662C190.386 35.1951 191.074 35.3273 191.303 35.5918C190.845 36.1207 189.699 36.2529 188.783 35.3273ZM190.272 57.5411C189.928 57.0122 189.814 56.4833 189.47 56.4833C189.928 54.4999 189.012 52.9132 188.783 51.3265V50.7976C189.241 51.7232 190.386 52.6488 190.272 53.4421C190.386 55.0288 190.386 56.4833 190.386 57.5411H190.272ZM188.095 60.1856C187.866 59.1278 187.523 57.5411 186.377 57.5411C186.263 56.8799 186.148 56.4833 185.461 55.9544L184.315 55.8221C184.43 56.4833 185.346 56.4833 184.773 57.5411C185.346 58.07 185.804 58.07 186.148 58.9955C186.377 59.5244 186.148 60.1856 186.263 60.5822L185.346 61.1111C185.346 60.1856 185.461 58.4666 184.43 58.07C183.513 58.4666 183.399 57.0122 182.711 56.4833C182.368 56.4833 182.368 55.5577 181.91 55.9544C181.222 56.4833 180.306 55.9544 179.504 56.4833L180.306 55.0288C180.879 54.4999 181.451 54.7643 182.139 54.4999L183.399 54.3677C184.544 54.3677 185.69 55.0288 186.95 55.5577C187.523 55.9544 187.866 56.4833 187.866 57.4088C188.095 57.5411 188.783 57.5411 188.783 58.07C188.554 58.4666 188.324 59.5244 188.095 60.1856ZM183.399 60.5822L182.941 61.1111C182.368 60.5822 182.711 59.1278 181.91 58.9955C181.222 58.9955 180.535 58.07 180.306 57.9377L180.879 57.5411C180.879 57.5411 181.222 57.4088 181.451 57.5411C181.795 57.9377 182.139 58.07 182.139 58.4666C182.368 58.9955 182.941 58.4666 183.17 58.9955C183.399 59.5244 183.513 60.1856 183.399 60.5822ZM178.473 53.971L179.16 51.8554C179.848 51.8554 180.306 51.591 180.535 51.591C181.222 51.3265 181.68 51.3265 182.139 51.3265V51.591C183.857 51.591 185.804 51.3265 187.064 52.9132L187.179 54.3677C186.606 53.8388 185.69 53.8388 185.346 52.9132C184.773 52.781 184.315 52.781 183.513 52.781C182.941 52.9132 182.139 52.9132 181.451 52.9132C181.337 52.9132 181.451 52.781 181.222 52.6488C180.306 52.9132 179.389 52.9132 178.473 53.971ZM177.786 38.2363C176.869 36.6496 177.327 35.1951 177.786 33.8729C178.129 34.9307 178.244 36.1207 178.473 36.914C178.588 37.7074 179.504 37.9718 179.848 38.5007C179.16 38.7652 178.129 39.0296 177.786 38.2363ZM176.067 44.9797C175.151 44.0542 174.578 42.9964 173.662 41.5419L176.067 42.0708C176.526 42.4675 177.442 43.6575 177.9 44.1864C177.671 44.5831 176.755 44.9797 176.067 44.9797ZM176.067 49.7398C175.953 49.7398 174.922 49.2109 174.578 48.8142C174.464 48.2853 174.464 47.7564 174.464 47.7564H175.609L176.411 49.7398H176.067ZM173.318 30.5672C173.204 30.5672 173.318 31.0961 173.204 31.0961C173.204 31.4928 172.86 32.1539 172.86 32.8151C172.516 33.0795 171.943 33.344 171.371 33.0795V32.5506C171.142 32.1539 171.142 31.4928 171.142 31.0961L171.027 30.9639C170.569 31.0961 170.569 31.4928 170.569 31.7573C170.454 32.1539 170.111 32.5506 170.111 33.0795C169.538 33.0795 169.194 32.8151 168.736 32.5506V30.9639C168.736 30.5672 168.736 30.5672 168.507 30.5672L167.82 31.4928C167.132 30.9639 167.018 29.5094 167.018 28.5839C169.538 26.9972 172.516 27.5261 174.464 28.4516C174.693 28.5839 175.036 28.5839 175.38 28.7161C175.151 29.7739 174.922 31.4928 173.891 32.1539C173.891 31.4928 173.662 31.0961 173.318 30.5672ZM171.485 39.823L171.142 37.9718C171.6 37.7074 172.058 37.3107 172.745 36.3851C172.745 37.7074 172.516 39.2941 171.485 39.823ZM170.454 50.2687L169.538 48.8142H171.829L172.287 49.872C171.6 50.4009 171.142 50.4009 170.454 50.2687ZM168.278 46.9631C168.392 46.4342 168.851 46.1697 169.194 45.6408C169.538 45.1119 170.111 44.1864 170.225 43.6575C171.027 43.1286 171.371 43.1286 171.943 43.1286C171.829 44.1864 171.371 44.5831 170.569 45.7731C170.111 46.1698 169.194 46.4342 168.278 46.9631ZM167.82 36.2529C168.278 36.2529 168.736 36.2529 169.194 36.6496C169.194 37.4429 169.538 38.2363 169.538 39.2941C168.507 38.2363 167.82 37.3107 167.82 36.2529ZM167.361 44.1864C166.903 44.1864 166.101 44.5831 165.185 44.1864C165.643 43.9219 166.101 43.6575 166.674 43.1286L167.934 41.8063H169.194C168.736 42.8641 168.278 43.9219 167.361 44.1864ZM165.643 52.9132C165.299 51.7232 164.612 50.4009 163.581 50.4009C163.123 49.872 162.665 49.3431 162.55 48.8142C162.092 48.2853 161.634 48.8142 161.061 48.2853C160.374 48.2853 159.572 48.2853 158.999 48.8142V48.2853L160.03 46.9631C161.176 47.0953 162.55 46.9631 162.894 47.7564C163.581 48.2853 164.383 48.8142 164.612 49.2109V49.7398C164.841 49.872 165.529 50.1365 165.758 50.2687C165.758 50.7976 165.643 52.9132 165.643 52.9132ZM163.925 57.0122C163.581 56.4833 163.925 55.5577 163.467 55.0288C163.467 54.7644 163.81 54.4999 163.581 54.3677C163.467 53.971 161.634 53.3099 161.634 53.3099C161.061 52.781 160.259 52.2521 159.572 51.591C158.999 51.3265 158.541 51.7232 157.739 51.8554V51.591C158.083 50.7976 158.083 49.872 158.999 49.872C159.457 49.872 160.03 49.872 160.374 50.4009C161.061 50.4009 161.29 51.1943 161.748 51.3265C162.55 52.2521 163.123 52.6488 163.581 52.9132C163.581 53.4421 163.81 53.8388 164.039 53.971C165.07 53.971 164.727 55.0288 165.07 55.8221L163.925 57.0122ZM162.206 60.1856L161.176 57.0122C159.915 55.5577 158.541 55.4255 157.739 54.7644C157.166 54.4999 157.166 55.0288 156.823 54.7644C156.823 54.3677 156.823 53.8388 157.281 53.3099H158.197L159.114 53.8388C159.572 54.3677 160.717 54.3677 160.717 55.4255C160.717 55.5577 160.603 55.8221 161.061 56.4833L162.55 57.0122L162.665 58.4666L162.206 60.1856ZM156.364 63.6234C156.364 62.6978 156.823 61.64 156.823 60.5822C156.823 60.5822 156.25 59.9211 155.562 59.9211C155.104 60.1856 155.104 60.5822 154.99 61.1111C154.531 62.1689 153.615 63.2267 153.5 64.2845C153.271 64.2845 153.271 64.1523 153.271 64.1523C153.271 62.4334 153.5 59.3922 154.417 58.07C155.104 57.0122 155.792 57.0122 156.708 56.8799L157.51 57.0122L156.823 58.07C157.51 58.4666 158.426 59.1278 158.426 60.1856C158.426 61.64 156.364 63.6234 156.364 63.6234ZM152.584 61.1111C152.355 60.45 151.897 59.5244 151.095 59.5244C150.522 60.9789 150.408 61.5078 150.98 63.6234C150.522 64.1523 150.178 64.2845 149.606 64.6812C149.262 64.0201 149.262 62.6978 149.262 62.0367C149.262 60.7145 149.491 59.5244 149.72 58.4666C150.178 57.9377 150.522 57.0122 150.98 56.4833H152.699C151.897 56.4833 151.897 57.4088 151.897 57.9377C152.355 58.07 153.042 58.3344 153.042 59.1278C153.042 59.9211 152.813 60.5822 152.584 61.1111ZM149.033 61.1111C148.804 61.1111 148.346 60.5822 147.887 60.5822C147.429 61.64 147.887 62.4334 147.887 63.6234C147.887 64.1523 147.773 64.6812 147.773 64.6812C147.429 64.6812 146.856 64.0201 146.742 63.2267V60.45L148.117 58.4666C149.033 59.1278 149.262 60.1856 149.033 61.1111ZM158.884 37.3107C158.999 36.6496 159.457 36.2529 159.572 36.1207C160.03 36.2529 160.374 36.2529 161.061 36.3851C160.259 37.3107 159.457 37.7074 159.114 38.7652C159.114 38.2363 158.999 37.7074 158.884 37.3107ZM158.999 16.6837L160.259 16.1548L159.457 17.2126C159.572 18.9315 158.999 20.2537 158.999 21.8404L158.197 18.9315C158.426 18.2703 158.541 17.6092 158.999 16.6837ZM158.999 13.1136C159.343 12.5847 159.457 12.0558 159.915 11.5269V13.6425L158.884 14.0392L158.999 13.1136ZM164.383 41.2774C164.612 41.013 164.727 41.2774 165.07 41.2774L164.383 43.9219C163.581 44.583 162.55 44.1864 161.634 44.1864C162.894 43.9219 163.81 42.3352 164.383 41.2774ZM162.894 39.0296C162.894 39.823 162.55 40.7485 161.748 41.5419C161.634 41.8063 161.176 42.0708 161.176 42.0708C161.176 41.013 161.634 40.0874 161.634 39.2941C162.092 39.0296 162.55 38.7652 162.894 39.0296ZM164.612 36.914C163.581 36.6496 162.55 35.5918 162.092 34.6662C161.748 33.8729 161.634 33.0795 161.634 32.5506C162.206 32.5506 162.665 33.0795 162.894 33.344V33.6084C163.581 34.6662 164.383 35.5918 164.612 36.914ZM166.559 34.1373L166.101 36.3851C165.643 35.3273 165.185 34.2695 165.07 33.0795L166.559 34.1373ZM176.067 39.2941C175.38 38.7652 173.891 38.5007 174.235 37.4429C174.578 36.6496 175.036 36.3851 175.38 36.1207C175.495 37.3107 175.609 38.2363 176.067 39.2941ZM161.748 5.97346C162.092 5.97346 162.55 5.84123 162.665 5.44456C163.467 5.31233 163.925 4.38676 164.841 4.91566C165.529 4.91566 166.101 5.31233 166.559 5.44456C166.559 5.84123 166.559 5.97346 166.903 6.37013C167.82 6.37013 167.82 7.42793 168.278 8.3535C168.736 8.48572 169.194 8.48572 169.538 8.48572C170.454 8.8824 171.142 8.8824 171.485 9.4113C172.745 8.48572 173.891 8.3535 175.38 8.48572C175.495 7.95683 175.838 7.2957 175.953 6.37013C176.067 6.89903 176.067 6.37013 176.411 6.37013C176.984 5.84123 177.786 4.91566 178.931 5.31233C179.504 5.84123 180.535 5.44456 181.222 6.37013C181.68 7.03125 181.91 8.08905 182.368 9.01462C181.91 10.0724 182.368 11.5269 181.451 12.0558L180.535 13.1136C180.306 13.1136 180.306 13.5103 179.848 13.5103C180.306 14.7003 179.962 16.5514 179.504 17.7414C179.848 17.6092 180.306 17.6092 180.306 17.0803C180.42 17.2126 180.306 17.6092 180.306 17.7414V18.2703C180.306 19.1959 179.848 20.1215 179.16 20.7826C178.931 21.8404 178.129 23.2949 176.984 23.4271V23.8238C179.389 23.8238 181.222 24.4849 183.399 25.8072V26.9972C181.451 25.8072 179.504 24.8816 177.213 24.6171C177.213 25.2783 177.213 25.8072 176.984 25.9394C178.931 26.9972 180.535 27.9227 182.139 29.5094V31.0961C180.535 29.245 178.931 27.5261 176.869 26.9972C176.755 27.3938 176.067 27.6583 175.953 28.4516C174.922 27.5261 173.662 26.6005 172.402 26.4683C171.943 26.4683 171.6 24.4849 171.6 24.4849C172.402 24.0882 172.86 23.5593 173.204 22.766H173.776C174.235 22.766 174.235 22.3693 174.235 21.8404C174.235 20.7826 172.287 20.7826 171.371 20.7826C170.225 20.7826 169.538 20.7826 168.851 21.3115C168.507 21.3115 168.736 21.8404 168.736 22.2371C168.736 22.3693 169.194 22.766 169.194 22.766C169.538 22.766 169.767 22.3693 170.111 22.3693C169.996 23.4271 170.225 23.956 171.142 24.4849L171.027 26.3361C169.194 26.3361 167.934 27.1294 166.559 27.9227C166.101 27.5261 165.758 26.9972 165.529 26.4683C163.581 27.1294 160.374 30.0383 160.374 30.0383V28.7161C161.748 27.3938 163.581 26.6005 165.07 25.8072V24.4849C164.383 24.0882 163.81 24.4849 163.123 24.4849C161.748 24.6171 160.374 25.4105 159.457 26.3361C159.457 25.8072 159.343 25.0138 159.343 25.0138C161.061 23.956 163.123 23.0304 165.185 23.4271V22.766C165.07 22.3693 165.07 21.8404 164.727 21.8404C163.81 20.7826 162.894 19.1959 162.894 18.1381L163.467 17.7414C163.123 16.6837 162.894 14.0392 163.467 13.1136C162.55 12.5847 161.634 11.6591 161.29 10.998C161.061 10.0724 160.717 9.54352 160.603 8.48572C161.061 7.42793 161.29 7.03125 161.748 5.97346ZM183.628 18.9315C183.628 19.1959 183.399 20.7826 183.399 20.7826L182.139 21.1793L182.941 17.2126C183.17 17.8737 183.628 18.667 183.628 18.9315ZM183.857 32.5506L185.346 34.1373C184.43 34.1373 183.399 34.6662 182.941 33.6084C183.17 33.344 183.513 32.8151 183.857 32.5506ZM185.002 23.8238C185.346 24.4849 185.346 24.8816 185.69 25.2783C186.263 24.8816 186.263 25.8072 186.377 25.9394C186.606 26.4683 186.95 26.9972 186.95 27.5261C185.919 27.5261 185.461 26.9972 185.002 25.9394C185.002 25.4105 184.888 24.6171 185.002 23.8238ZM187.981 31.4928C187.866 32.1539 187.179 31.4928 187.064 31.4928H185.69C185.461 31.0961 185.346 30.9639 185.346 30.5672C185.919 30.3028 186.377 30.0383 186.95 30.3028C187.179 30.9639 187.523 31.4928 187.981 31.4928ZM180.306 50.2687C180.306 49.7398 180.535 49.2109 181.222 48.8142C182.139 49.2109 182.941 46.9631 183.857 48.1531C184.315 48.2853 184.773 48.2853 185.002 48.2853C186.148 48.8142 186.377 49.872 186.95 50.7976C186.148 50.7976 185.461 50.7976 185.002 49.872C184.888 49.872 184.544 49.3431 184.43 49.7398C183.628 50.4009 182.941 49.2109 181.91 49.3431C181.451 49.872 180.993 50.2687 180.306 50.4009V50.2687ZM181.91 39.2941C182.597 38.7652 183.399 38.7652 183.628 38.5007C184.315 39.2941 184.888 40.4841 185.919 41.2774C185.346 41.2774 184.315 41.2774 183.628 40.7485C182.711 40.0874 182.368 39.823 181.91 39.2941ZM181.68 42.0708C182.139 42.3352 182.941 42.8641 183.399 43.1286H182.941C181.222 43.9219 179.848 42.5997 178.473 41.5419C179.16 41.2774 180.306 41.013 181.222 41.013L181.68 42.0708ZM181.68 36.2529C180.879 36.3851 180.306 35.5918 179.504 35.1951C179.16 34.1373 179.16 33.0795 178.931 32.5506C179.504 33.0795 180.879 33.0795 180.535 34.6662C180.535 35.1951 181.222 35.5918 181.68 36.2529ZM189.699 38.2363L188.897 38.5007C187.179 38.5007 186.377 37.9718 185.69 37.3107C186.263 37.3107 187.064 36.3851 187.064 36.3851C187.866 37.3107 188.897 37.9718 189.699 38.2363ZM215.13 14.7003C214.672 14.0392 213.984 13.1136 213.412 13.1136C213.87 13.1136 214.442 12.5847 215.244 12.5847C215.588 13.5103 216.161 14.0392 216.275 14.7003L216.504 15.7581C216.161 15.097 215.588 14.7003 215.13 14.7003ZM210.204 12.0558C209.86 11.5269 209.402 12.0558 209.059 12.0558C208.715 12.0558 208.6 12.0558 208.028 11.5269C208.944 11.5269 209.402 10.998 210.204 10.6013C210.777 11.1302 211.35 11.3947 211.808 12.0558H210.204ZM225.21 21.3115C223.034 18.7992 220.628 17.6092 218.795 15.097C217.879 14.0392 217.077 12.9814 216.504 11.5269C215.703 10.6013 215.244 10.0724 214.328 9.54352C214.442 10.0724 214.672 10.6013 214.786 11.1302H214.672C213.87 11.1302 213.068 10.6013 212.495 10.0724L213.068 9.4113C212.953 9.01462 212.495 9.01462 212.151 9.01462C209.746 8.48572 207.34 10.0724 204.935 10.6013V10.998C206.424 11.5269 206.767 13.6425 207.684 14.7003H208.6C208.944 14.7003 209.402 15.097 209.746 15.097C209.746 14.7003 209.402 14.0392 209.402 14.0392C209.746 13.6425 209.975 13.6425 210.319 14.0392C211.12 14.5681 212.151 13.6425 212.953 15.097C212.037 15.097 211.12 15.097 210.319 15.6259C210.319 15.7581 210.777 16.1548 210.662 16.5514C209.86 16.1548 208.944 16.5514 208.6 15.7581L208.486 16.0225C209.402 17.2126 210.777 18.2703 212.151 18.7992C214.213 19.1959 215.817 18.1381 217.879 18.667C224.981 22.5015 229.907 31.7573 229.907 41.013C229.907 54.2355 223.378 59.5244 219.254 59.5244C218.452 59.5244 217.192 58.9955 216.734 58.4666C217.192 56.4833 217.535 54.3677 217.535 51.1943C217.535 43.5253 214.901 35.3273 211.35 31.0961C209.746 29.1128 207.798 27.5261 205.851 27.5261C204.935 27.5261 204.018 27.5261 203.331 28.4516C202.644 29.1128 202.185 30.5672 202.3 31.4928C201.04 32.5506 199.092 33.0795 197.489 33.0795C195.77 33.0795 193.708 32.2862 191.647 30.5672V27.9227C191.188 27.6583 189.699 26.6005 190.386 25.8072C190.845 25.9394 191.188 26.3361 191.303 26.4683C191.188 25.2783 191.188 23.8238 190.386 22.766C190.157 22.766 189.699 22.766 189.241 22.3693C188.783 21.8404 188.324 21.1793 188.324 20.2537C188.783 21.1793 189.47 20.7826 189.928 21.3115C189.241 19.1959 189.47 18.2703 188.095 15.097C187.866 13.5103 186.377 12.5847 185.461 11.5269C185.002 11.1302 184.888 10.6013 184.315 10.6013C183.628 10.4691 183.628 9.54352 183.628 9.01462C183.857 9.01462 184.315 9.4113 184.544 9.54352C183.628 7.03125 183.055 4.38676 180.993 2.93229L180.535 3.32896H178.129C178.473 2.93229 179.046 2.80007 179.504 2.40339C179.046 1.87449 178.702 1.74227 177.786 1.74227C177.327 1.87449 176.755 2.40339 176.067 2.40339H175.953C175.953 1.87449 175.838 1.21337 176.755 0.816695C175.838 0.68447 175.036 0.68447 173.891 0.816695C173.776 1.74227 173.318 2.27117 173.318 2.93229C172.86 3.32896 172.745 3.85786 172.287 4.38676C172.287 3.32896 172.745 2.27117 172.86 1.21337C172.287 1.34559 171.485 1.87449 171.142 1.87449C169.996 1.21337 168.392 0.552246 167.82 0.552246C168.736 1.21337 168.278 2.40339 168.392 3.32896L167.82 2.93229C167.59 2.27117 166.903 1.74227 166.674 0.816695C165.758 0.816695 165.185 1.21337 164.383 1.74227V1.87449C164.841 1.87449 165.529 2.40339 165.758 2.93229C164.727 2.93229 163.925 2.40339 162.894 2.40339C162.894 2.40339 162.894 2.27117 162.665 2.27117C162.206 2.40339 161.748 2.93229 161.519 3.32896C160.374 4.38676 159.572 5.31233 159.114 6.89903C159.457 6.89903 159.915 6.89903 160.03 7.03125C159.457 7.2957 159.114 8.08905 158.541 8.3535V10.998C158.083 11.5269 157.51 12.0558 157.166 13.1136C156.364 16.0225 156.25 19.1959 156.25 22.766C156.021 23.4271 155.792 23.5593 155.448 23.8238V26.6005C155.448 26.6005 156.364 25.5427 156.823 25.2783V27.5261C156.25 27.5261 155.792 28.4516 155.792 28.9805C155.792 29.6417 155.906 30.3028 155.906 31.0961C155.906 31.4928 155.906 31.4928 156.021 31.7573C156.021 31.4928 156.364 31.0961 156.823 30.9639C156.823 30.9639 157.166 30.5672 157.739 30.5672C157.281 31.0961 157.166 31.7573 156.823 32.5506L156.364 33.0795C156.364 33.0795 156.25 33.344 156.25 33.6084C156.823 37.3107 157.739 40.4841 158.999 44.0542C157.739 46.4342 156.364 50.7976 155.448 55.0288C154.646 54.2355 153.615 53.971 152.699 53.971C151.782 54.2355 150.866 54.4999 150.178 55.5577C149.262 55.0288 148.117 55.2933 147.429 55.9544C146.055 57.4088 146.055 58.07 146.055 59.1278C145.711 59.5244 145.138 60.45 145.138 61.64C145.138 63.2267 145.253 64.2845 146.055 65.739H169.538C169.309 65.2101 168.965 64.549 168.736 64.1523C168.278 63.0945 168.507 61.64 168.507 60.5822C168.965 59.5244 169.538 58.4666 170.111 57.5411C170.225 57.0122 170.111 57.0122 170.225 56.8799L171.371 56.4833C171.943 56.4833 172.402 55.9544 173.204 55.9544C173.662 56.8799 173.662 55.4255 174.464 55.0288C176.067 54.7644 177.786 55.0288 178.702 56.4833C178.702 56.8799 178.931 56.8799 178.931 57.0122H178.129C177.213 56.4833 176.067 55.9544 175.036 56.4833C175.036 57.0122 174.922 57.0122 174.922 57.5411V58.4666C175.495 58.4666 175.953 59.1278 176.526 59.5244C176.869 58.9955 177.786 58.4666 178.473 58.4666C179.16 58.4666 180.306 58.9955 180.306 60.45V62.4334C180.879 63.0945 181.68 63.2267 182.368 63.6234C182.139 64.2845 181.68 64.2845 181.222 64.2845H179.962C179.848 64.1523 179.504 64.1523 179.504 63.6234C179.046 64.2845 178.702 65.0779 178.473 65.739H196.458C196.114 65.0779 195.77 64.549 195.656 64.1523C195.312 63.0945 195.312 61.64 195.312 60.5822L197.03 57.9377C197.947 57.9377 198.749 57.5411 200.467 57.4088C200.696 56.8799 200.467 56.4833 201.842 56.4833C202.873 56.4833 203.675 56.8799 204.018 57.0122C204.133 57.4088 204.133 57.4088 204.018 57.8055C203.675 58.07 203.102 57.4088 202.644 57.5411C202.3 57.9377 202.758 58.07 202.758 58.4666C203.102 58.8633 201.383 58.07 201.383 58.07C201.383 58.07 201.04 59.1278 200.925 59.5244L201.842 60.5822C202.185 61.1111 201.383 61.64 201.383 62.1689C201.04 62.0367 200.467 61.5078 200.467 61.64C200.123 63.0945 200.467 64.2845 200.238 65.739H201.956L202.185 62.6978C202.3 60.9789 204.133 57.8055 205.278 57.8055C205.851 57.8055 206.309 58.07 206.767 58.4666C207.111 59.1278 207.798 59.5244 207.798 59.9211C207.798 60.1856 207.34 60.45 206.653 60.45C206.309 60.45 206.309 59.9211 205.851 59.5244L204.935 60.5822C204.935 60.5822 205.966 61.64 205.966 62.4334C205.966 63.2267 205.851 63.6234 205.393 64.1523L204.476 62.0367C204.018 62.0367 203.216 63.0945 203.216 63.6234C203.216 64.2845 202.873 64.6812 202.873 65.739H212.495C213.526 65.739 214.442 65.3423 215.588 64.6812H217.421C221.201 64.6812 224.294 63.4912 227.043 60.1856C230.824 55.9544 233 49.2109 233 42.5997C233 34.7984 230.136 26.9972 225.21 21.3115ZM0 65.739V63.7556C3.7115 63.7556 6.34621 63.4912 6.34621 57.1444V24.0882C6.34621 17.7414 4.33009 17.477 0 17.477V15.6259H21.9712V17.477C17.4807 17.477 15.625 17.7414 15.625 24.0882V57.1444C15.625 63.4912 17.9504 63.7556 21.9712 63.7556V65.739H0ZM75.6734 27.6583V66.1357H73.0502L39.7727 26.4683C39.933 27.5261 39.933 28.4516 39.933 29.5094V53.5743C39.933 61.1111 39.933 63.7556 45.8096 63.7556V65.739H30.1732V63.7556C36.0612 63.7556 36.0612 60.5822 36.0612 53.5743V26.0716C36.0612 21.9726 36.0612 17.477 29.8753 17.477V15.6259H44.5724L71.9619 48.0209C71.813 47.2275 71.813 46.6987 71.813 45.3764V27.6583C71.813 20.5182 71.9619 17.477 66.0854 17.477V15.6259H81.7218V17.477C75.9942 17.477 75.6734 20.3859 75.6734 27.6583ZM129.674 48.8142V61.64C123.488 65.2101 117.646 67.0612 111.803 67.0612C95.5598 67.0612 85.7426 55.9544 85.7426 41.9386C85.7426 26.9972 96.9344 14.4358 111.116 14.4358C114.667 14.4358 117.302 15.2292 120.166 16.287C122.113 16.9481 123.373 17.8737 124.633 17.8737C125.664 17.8737 126.008 15.7581 126.122 14.4358H127.726L129.101 31.7573H127.268C126.466 28.4516 125.091 25.5427 123.259 23.5593C120.28 20.2537 116.271 18.4026 111.574 18.4026C101.86 18.4026 96.1325 27.3939 96.1325 40.7485C96.1325 53.971 103.12 63.0945 112.376 63.0945C115.125 63.0945 117.646 62.3012 120.738 60.7145V47.492C120.738 43.2608 120.166 41.6741 114.896 41.6741V39.6907H134.485V41.6741C129.559 41.6741 129.674 43.393 129.674 48.8142Z" fill="white"/>
</svg>
