<svg width="1239" height="795" viewBox="0 0 1239 795" fill="none" xmlns="http://www.w3.org/2000/svg">
<path d="M852.387 64.1888C875.087 70.2794 892.598 96.2346 781.047 151.331C729.703 175.225 652.148 229.337 652.148 305.235C652.148 381.133 643.879 371.856 623.773 402.215C617.995 410.941 606.749 433.277 652.148 481.627C697.546 529.977 697.546 571.58 684.575 588.446C671.604 605.312 631.88 655.911 515.952 721.97C503.792 731.34 478.012 750.502 472.175 752.189" stroke="white"/>
<path d="M38.0469 689.289C83.4485 682.944 184.791 684.354 254.515 723.834C350.994 771.774 423.15 779.529 534.222 702.684C598.271 658.372 725.395 589.461 698.803 534.189" stroke="white"/>
<path d="M32.1934 655.621C72.0096 669.069 152.455 617.401 254.027 688.179C273.352 697.798 295.962 714.305 314.157 720.029C387.005 742.943 453.417 727.967 542.492 666.238C606.685 621.751 705.007 583.428 683.88 516.189" stroke="white"/>
<path d="M799.532 61.1888C814.729 69.3929 703.428 180.03 636.926 207.455C570.425 234.88 621.713 258.086 607.059 338.251C590.065 372.005 561.635 439.559 626.315 470.5" stroke="white"/>
<path d="M1017.52 65.2844C1058 62.5515 1129.24 119.258 1174.58 130.189" stroke="white"/>
<path d="M234.136 756.189C215.677 744.522 151.398 721.189 41.9492 721.189" stroke="white"/>
<path d="M819.477 751.716C819.477 726.572 827.61 708.058 829.233 704.92C842.24 679.776 857.687 676.983 899.148 674.189C938.659 674.189 960.934 682.714 960.934 707.016C960.934 723.717 920.936 743.815 882.076 755.189" stroke="white"/>
<path d="M777.527 750.96C796.211 715.013 820.651 668.036 823.018 663.559C841.992 627.676 865.26 630.431 912.376 641.708C939.995 648.319 986.299 653.17 986.299 687.851C986.299 711.685 952.812 738.957 896.129 755.189" stroke="white"/>
<path d="M746.309 749.751C784.992 718.1 807.692 636.949 810.781 631.08C835.536 584.046 860.778 591.767 922.253 606.549C958.289 615.215 1024.35 624.22 1024.35 669.678C1024.35 700.919 989.691 723.714 920.384 753.189" stroke="white"/>
<path d="M706.311 750.798C764.791 715.249 785.909 607.342 788.428 599.229C808.206 535.531 827.007 556.229 905.306 575.109C951.206 586.177 1060.44 590.467 1060.44 648.526C1060.44 688.429 1016.3 717.543 928.027 755.189" stroke="white"/>
<path d="M934.918 755.189C1037.46 710.262 1088.73 675.516 1088.73 627.896C1088.73 558.606 988.235 563.931 934.918 550.722C876.705 536.301 861.997 497.322 860.377 479.054C858.757 453.759 864.163 440.891 866.855 427.059C895.844 278.138 817.427 316.176 799.644 325.177C784.773 332.704 704.9 407.385 722.716 479.054C730.003 511.375 769.52 587.681 739.72 656.82C733.242 675.791 703.442 722.024 636.069 755.189" stroke="white"/>
<path d="M40.9736 335.961C67.2851 326.771 97.8119 312.633 145.948 381.911C200.47 460.38 254.991 553.977 134.556 540.969L103.435 533.916" stroke="white"/>
<path d="M941.047 754.189C1068.41 709.304 1118 647.913 1118 616.945C1118 547.721 1023.84 538.118 956.47 514.893C887.532 491.127 888.337 457.151 886.325 438.899C884.314 413.628 891.027 400.773 894.371 386.953C930.377 238.171 832.98 276.174 810.893 285.167C792.423 292.686 662.632 383.28 697.535 478.294C732.438 573.309 761.173 633.837 684.547 692.957C669.396 709.849 630.488 745.743 596.071 754.189" stroke="white"/>
<path d="M1199.95 588.934C1154.52 593.848 1135.68 537.966 1099.35 525.057C1048.34 506.933 1016.17 502.912 976.844 489.264C907.941 465.353 908.746 431.169 906.736 412.806C904.725 387.38 911.435 374.446 914.778 360.542C976.844 214.798 854.51 233.127 832.435 242.174C815.641 249.057 693.164 297.513 679.102 442.228C675.282 481.537 701.006 517.336 710.742 529.971C735.892 561.09 752.928 642.703 619.877 720.198L573.634 753.189" stroke="white"/>
<path d="M1204.83 530.767C1159.28 536.187 1165.81 521.629 1144.68 508.977C1093.55 488.985 1032.93 480.089 993.504 465.035C924.432 438.661 928.059 411.14 926.044 390.885C924.028 362.84 940.574 329.602 943.925 314.266C1006.14 153.508 843.141 189.145 816.089 204.885C800.57 213.915 658.29 300.744 659.454 435.872C659.589 451.522 661.893 466.801 671.646 479.454C701.989 516.24 743.333 604.153 665.957 661.511L542.415 752.189" stroke="white"/>
<path d="M1206.78 482.858C1155.98 488.552 1162.04 481.367 1138.47 468.074C1081.44 447.071 1057.21 457.842 1013.24 442.027C936.21 414.318 942.831 380.594 940.583 359.314C938.335 329.851 969.118 294.931 972.855 278.819C1042.25 109.928 859.982 146.74 830.283 163.904C766.856 200.559 692.859 209.711 654.64 359.66C646.207 392.748 620.051 444.628 654.64 482.858C689.345 521.217 742.461 601.691 618.861 671.526C583.353 693.115 511.523 739.672 508.271 753.189" stroke="white"/>
<path d="M831.088 480.304C857.982 413.317 850.647 371.009 821.308 368.189C821.308 368.189 738.179 380.176 751.219 480.304C764.259 580.432 796.043 674.779 672.166 753.189" stroke="white"/>
<path d="M1179.13 669.445C1179.13 669.445 1147.38 656.664 1102.22 670.618C1057.06 684.571 1016.8 707.798 1016.8 707.798" stroke="white"/>
<path d="M1175.18 707.094C1175.18 707.094 1120.76 692.318 1073.65 698.651C1026.55 704.983 989.999 723.278 989.999 723.278" stroke="white"/>
<path d="M1185.09 741.572C1185.09 741.572 1113.84 714.01 1054.12 720.414C994.391 726.817 949.422 752.961 949.422 752.961" stroke="white"/>
<path d="M1087.26 256.784C1087.26 265.034 1082.96 271.742 1075.95 276.407C1068.93 281.079 1059.19 283.689 1048.39 283.689C1037.62 283.689 1030.04 280.641 1025.16 275.576C1020.28 270.507 1018.02 263.347 1018.02 254.984C1018.02 246.621 1020.28 239.566 1025.16 234.6C1030.04 229.637 1037.61 226.689 1048.39 226.689C1069.98 226.689 1087.26 240.273 1087.26 256.784Z" stroke="white"/>
<path d="M1122.38 278.074C1122.38 294.835 1114.47 307.461 1101.06 315.92C1087.63 324.393 1068.68 328.689 1046.64 328.689C1024.7 328.689 1008.21 319.481 997.805 307.768C987.378 296.03 983.108 281.836 985.491 271.882C987.24 264.576 992.591 249.754 1002.99 236.77C1013.39 223.797 1028.8 212.689 1050.7 212.689C1094.6 212.689 1122.38 248.204 1122.38 278.074Z" stroke="white"/>
<path d="M1159.3 292.518C1161.71 303.954 1160.15 314.029 1155.52 322.719C1150.88 331.417 1143.15 338.761 1133.16 344.688C1113.19 356.548 1084.3 362.689 1053.58 362.689C1022.95 362.689 999.919 349.913 985.387 333.655C970.835 317.373 964.85 297.659 968.189 283.797C970.894 272.566 979.623 252.896 994.714 235.601C1009.8 218.316 1031.19 203.443 1059.24 201.689C1120.44 201.697 1150.33 250.001 1159.3 292.518Z" stroke="white"/>
<path d="M1184.34 314.548C1172.53 259.723 1106.46 186.794 1066.31 189.249C992.233 193.779 956.149 271.697 951.508 301.173C931.226 429.991 1153.51 406.058 1180.28 356.079" stroke="white"/>
<path d="M1180.44 270.339C1116.98 194.715 1106.41 150.189 1069.8 150.189C1031.7 150.189 1029.67 165.143 1006.35 194.008C980.021 226.591 949.603 278.24 942.892 300.73C893.545 466.122 1147.08 421.587 1180.44 432.189" stroke="white"/>
<path d="M891.576 64.1208C891.576 64.1208 968.583 63.0539 1019.41 75.2337C1074.98 88.5527 1091.69 108.304 1113.62 116.748C1135.55 125.191 1180.22 141.375 1166.41 173.039C1152.61 204.702 1170.5 257.158 1182.34 256.916" stroke="white"/>
<path d="M41.9492 90.2566C145.589 105.284 189.604 100.215 239.989 64.1888" stroke="white"/>
<path d="M41.9492 124.944C145.552 146.351 195.911 136.954 240.715 98.8052L283.89 64.1888" stroke="white"/>
<path d="M41.9492 167.567C145.582 188.814 209.809 182.993 323.888 65.1888" stroke="white"/>
<path d="M38.0469 214.808C141.283 236.007 205.264 240.694 357.057 67.1888" stroke="white"/>
<path d="M334.639 210.835C328.482 221.437 314.908 229.752 301.358 234.795C294.596 237.312 287.872 239.001 282.136 239.75C276.374 240.503 271.698 240.294 268.963 239.102C266.178 237.888 264.675 236.339 264.1 234.412C263.518 232.461 263.859 230.039 264.975 227.027C266.088 224.02 267.948 220.487 270.324 216.343C271.581 214.151 272.971 211.807 274.464 209.288C275.801 207.033 277.22 204.638 278.702 202.087C284.909 191.4 297.009 178.586 309 169.068C314.994 164.31 320.937 160.396 326.078 157.984C328.649 156.779 331 155.958 333.044 155.589C335.09 155.22 336.788 155.311 338.095 155.88C340.795 157.057 342.75 159.677 343.942 163.383C345.132 167.081 345.538 171.797 345.197 177.054C344.516 187.565 340.851 200.14 334.639 210.835Z" stroke="white"/>
<path d="M91.5812 530.941C131.88 537.574 177.553 529.566 177.553 506.375C177.553 483.184 134.005 439.189 95.3456 439.189C86.6636 439.189 63.4394 444.648 39.998 466.483" stroke="white"/>
<path d="M672.166 47.1888C672.166 67.9447 638.928 86.1888 591.929 86.1888C544.93 86.1888 514.124 75.0356 514.124 54.2798" stroke="white"/>
<path d="M725.822 57.1888C709.542 84.1055 670.699 125.189 592.754 125.189C535.349 122.356 465.346 100.462 465.346 64.2722" stroke="white"/>
<path d="M768.746 58.1888C747.609 96.7889 707.774 157.847 601.274 165.567C494.775 173.287 432.176 107.309 432.176 66.6107" stroke="white"/>
<path d="M522.978 441.726C528.202 450.194 526.392 459.351 518.653 468.56C510.908 477.776 497.28 486.963 479.1 495.379C460.948 503.783 442.369 507.865 427.018 507.689C411.636 507.514 399.663 503.075 394.447 494.62C389.199 486.112 389.845 475.848 396.377 465.568C402.91 455.284 415.314 445.026 433.466 436.622C451.594 428.23 471.374 425.227 487.94 426.482C504.549 427.741 517.755 433.257 522.978 441.726Z" stroke="white" stroke-opacity="0.52"/>
<path d="M554.083 444.312C562.278 457.598 559.659 471.812 548.061 485.942C536.455 500.083 515.904 514.067 488.444 526.78C461.013 539.48 432.829 545.502 409.454 544.991C386.051 544.479 367.62 537.432 359.433 524.16C351.214 510.836 352.014 494.905 361.753 479.092C371.495 463.275 390.168 447.611 417.6 434.912C445.006 422.223 475.043 417.889 500.288 420.089C525.572 422.292 545.888 431.027 554.083 444.312Z" stroke="white" stroke-opacity="0.6"/>
<path d="M581.628 447.089C592.291 464.479 590.67 482.704 577.549 500.709C564.38 518.781 539.638 536.603 504.178 553.02C468.745 569.424 431.16 577.382 400.027 576.858C368.866 576.333 344.372 567.327 334.764 550.02C328.848 535.589 331.752 512.65 345.052 489.167C358.344 465.699 381.979 441.765 417.366 425.375C481.228 403.676 538.642 425.324 581.628 447.089Z" stroke="white"/>
<path d="M588.743 495.112C588.743 506.979 586.185 516.773 581.124 525.343C576.06 533.918 568.47 541.299 558.357 548.31C540.641 560.591 515.28 571.674 482.405 586.041C477.711 588.091 472.865 590.209 467.866 592.407C428.356 606.793 387.05 609.93 355.647 603.528C339.943 600.327 326.749 594.746 317.491 587.027C308.244 579.318 302.926 569.479 302.926 557.706C302.926 546.108 308.196 532.13 316.303 517.053C324.402 501.989 335.294 485.896 346.463 470.081C349.157 466.266 351.623 462.635 353.97 459.178C361.744 447.73 368.219 438.195 377.408 430.204C389.342 419.827 405.877 412.051 435.83 406.283C465.669 400.536 503.921 410.867 534.739 428.635C550.14 437.515 563.654 448.236 573.312 459.697C582.974 471.164 588.743 483.33 588.743 495.112Z" stroke="white"/>
<path d="M453.138 365.378V365.408L453.142 365.439C455.807 387.307 470.713 398.627 486.83 405.79C494.291 409.106 502.036 411.543 508.97 413.724C509.523 413.898 510.07 414.07 510.611 414.241C517.982 416.567 524.242 418.636 528.155 421.241L528.197 421.269L528.244 421.288C564.088 435.792 586.778 447.902 600.508 460.441C614.198 472.944 618.985 485.878 618.985 502.122C618.985 527.812 605.119 547.275 579.763 565.11C554.391 582.957 517.602 599.11 471.917 618.188C426.774 633.801 379.575 637.208 343.686 630.258C325.738 626.783 310.653 620.724 300.066 612.34C289.491 603.965 283.414 593.281 283.414 580.504C283.414 567.894 288.811 550.911 297.43 532.754C306.042 514.612 317.841 495.356 330.582 478.219C336.223 470.632 344.818 458.482 349.853 444.574C354.89 430.66 356.386 414.921 347.725 400.224C339.199 385.756 332.317 365.974 333.227 348.472C333.681 339.729 336.078 331.58 341.159 324.938C346.236 318.301 354.025 313.127 365.341 310.384C388.101 304.866 410.066 305.204 426.315 313.602C442.518 321.976 453.138 338.42 453.138 365.378Z" stroke="white"/>
<path d="M487.934 345.177V345.211L487.938 345.245C494.19 391.443 516.097 415.963 534.929 424.275C576.066 442.43 602.948 455.342 619.553 468.06C627.846 474.412 633.55 480.697 637.184 487.539C640.816 494.377 642.399 501.803 642.399 510.465C642.399 537.821 621.863 562.715 587.644 585.899C553.451 609.064 505.74 630.425 451.688 650.751C398.263 667.39 348.587 665.4 312.29 652.386C275.961 639.361 253.172 615.362 253.172 588.049C253.172 574.64 260.047 560.23 269.822 544.166C273.751 537.708 278.137 531.001 282.718 523.997C283.828 522.298 284.95 520.582 286.08 518.848C291.859 509.978 297.835 500.64 303.489 490.765C316.892 474.507 331.225 439.273 310.811 408.078C300.743 392.693 294.389 369.614 297.264 348.941C298.701 338.613 302.438 328.904 309.145 321.052C315.85 313.203 325.546 307.178 338.954 304.251C365.932 298.362 403.262 294.066 433.823 298.55C449.105 300.792 462.644 305.223 472.352 312.702C482.036 320.163 487.934 330.675 487.934 345.177Z" stroke="white"/>
<path d="M661.91 511.942C661.91 540.907 640.121 572.518 602.357 602.308C564.622 632.076 511.045 659.936 447.715 681.419C390.334 697.538 334.576 691.111 291.058 673.839C247.506 656.553 216.317 628.455 207.926 601.336C207.842 601.065 207.759 600.801 207.679 600.543C207.015 598.416 206.492 596.74 206.371 595.001C206.237 593.083 206.596 591.063 207.9 588.302C209.694 584.504 213.029 580.466 217.487 575.869C220.485 572.777 223.967 569.455 227.797 565.8C229.66 564.023 231.606 562.167 233.618 560.22C245.901 548.339 260.6 533.159 273.877 512.247C281.74 503.644 289.851 490.052 293.025 474.49C296.205 458.894 294.426 441.31 282.459 424.815C270.665 408.559 264.387 384.925 268.077 362.299C271.763 339.697 285.395 318.093 313.453 305.834C341.594 293.539 393.628 284.261 438.309 285.871C460.651 286.676 481.095 290.202 495.779 297.394C510.442 304.576 519.289 315.367 518.667 330.736C517.038 370.95 521.916 392.001 529.421 404.342C535.397 414.166 543.04 418.441 550.174 422.43C552.004 423.454 553.801 424.459 555.527 425.533C575.071 437.702 591.51 446.908 605.171 454.447C606.851 455.374 608.488 456.276 610.084 457.155C621.473 463.426 630.738 468.528 638.127 473.347C646.55 478.84 652.483 483.933 656.317 489.915C660.145 495.885 661.91 502.785 661.91 511.942Z" stroke="white"/>
<path d="M539.489 425.473C522.43 414.856 505.135 409.986 508.385 329.802C510.912 267.424 353.757 281.417 297.42 306.021C241.083 330.625 242.585 392.824 266.282 425.473C289.978 458.122 278.125 500.241 262.515 517.288C225.562 557.642 182.909 572.853 128.484 541.202L109.264 536.229" stroke="white"/>
<path d="M107.312 536.041C165.813 548.7 203.593 562.739 240.557 523.134C256.172 506.403 255.176 476.771 240.557 439.496C225.939 402.222 208.294 340.137 275.717 311.247C343.139 282.357 562.64 256.284 560.112 317.504C556.862 396.198 557.429 415.715 574.493 426.134C592.639 438.559 606.165 443.184 628.265 459.5" stroke="white"/>
<path d="M87.8008 530.466C157.604 543.598 176.566 562.063 220.671 520.98C239.303 503.625 238.114 472.886 220.671 434.221C203.228 395.555 182.174 331.154 262.623 301.185C343.072 271.217 481.35 275.292 527.675 236.644C536.074 229.383 541.492 216.266 515.484 201.51C489.477 186.754 380.571 171.294 430.147 65.1888" stroke="white"/>
<path d="M37.0713 562.189C51.2702 562.189 78.0456 552.243 78.0456 541.663C78.0456 531.082 55.2873 523.189 41.0884 523.189" stroke="white"/>
<path d="M38.0469 598.189C65.7685 598.189 118.044 578.807 118.044 558.189C118.044 537.57 73.6114 522.189 45.8898 522.189" stroke="white"/>
<path d="M38.0469 628.189C83.0095 628.189 167.797 604.761 167.797 579.838C167.797 554.915 86.2533 522.189 41.2906 522.189" stroke="white"/>
</svg>
