<svg width="1217" height="732" viewBox="0 0 1217 732" fill="none" xmlns="http://www.w3.org/2000/svg">
<path d="M852 1.5C874.699 7.59057 892.597 35.2346 781.047 90.3308C729.703 114.225 652.147 168.337 652.147 244.235C652.147 320.133 643.878 310.856 623.773 341.215C617.995 349.941 611 376.5 660.5 423.5" stroke="white" stroke-opacity="0.5"/>
<path d="M38.0469 628.289C83.4485 621.944 184.791 623.354 254.515 662.834C350.994 710.774 423.15 718.529 534.222 641.684C598.271 597.372 721.5 535 701 479.5" stroke="white" stroke-opacity="0.5"/>
<path d="M32.1938 594.621C72.0101 608.069 152.455 556.401 254.027 627.179C273.353 636.798 295.962 653.305 314.158 659.029C387.006 681.943 453.418 666.967 542.492 605.238C606.686 560.751 704.627 526.239 683.5 459C678.944 444.5 666.344 428.667 660 423" stroke="white" stroke-opacity="0.5"/>
<path d="M799.5 1C791.969 49.3112 703.427 119.03 636.926 146.455C570.424 173.88 647.5 189.5 607.059 277.251C590.064 311.005 592 355 649.5 412.5" stroke="white" stroke-opacity="0.5"/>
<path d="M979.5 1.5C993 17 1118 0 1211.5 105.5" stroke="white" stroke-opacity="0.5"/>
<path d="M1042 2C1055.5 17.5 1174.5 13 1210.5 82.5" stroke="white" stroke-opacity="0.5"/>
<path d="M1082.5 1.5C1096 17 1217 -14.5 1210.5 66" stroke="white" stroke-opacity="0.5"/>
<path d="M937 1C952.5 36.9044 1074.5 -23 1212 125" stroke="white" stroke-opacity="0.5"/>
<path d="M241.5 698.5C223.041 686.833 151.398 660.189 41.9492 660.189" stroke="white" stroke-opacity="0.5"/>
<path d="M820 698.5C820 673.356 827.609 647.058 829.232 643.92C842.24 618.776 857.686 615.983 899.148 613.189C938.659 613.189 960.934 621.714 960.934 646.016C960.934 662.717 920.361 687.126 881.5 698.5" stroke="white" stroke-opacity="0.5"/>
<path d="M773.5 697.5C792.184 661.553 820.651 607.036 823.018 602.559C841.991 566.676 865.26 569.431 912.376 580.708C939.995 587.319 986.298 592.17 986.298 626.851C986.298 650.685 950.183 681.268 893.5 697.5" stroke="white" stroke-opacity="0.5"/>
<path d="M734.5 698.5C773.183 666.849 807.692 575.949 810.781 570.08C835.536 523.046 860.778 530.767 922.253 545.549C958.29 554.215 1024.35 563.22 1024.35 608.678C1024.35 639.919 977.808 669.025 908.5 698.5" stroke="white" stroke-opacity="0.5"/>
<path d="M696.5 697.5C754.98 661.951 785.909 546.342 788.428 538.229C808.206 474.531 827.007 495.229 905.306 514.109C951.206 525.177 1060.44 529.467 1060.44 587.526C1060.44 627.429 1008.28 660.854 920 698.5" stroke="white" stroke-opacity="0.5"/>
<path d="M930.5 698.5C1033.04 653.573 1088.73 614.516 1088.73 566.896C1088.73 497.606 988.236 502.931 934.918 489.722C876.705 475.301 861.997 436.322 860.377 418.054C858.758 392.759 864.163 379.891 866.856 366.059C895.845 217.138 817.427 255.176 799.645 264.177C784.774 271.704 704.9 346.385 722.716 418.054C730.003 450.375 769.52 526.681 739.721 595.82C733.243 614.791 700.373 665.835 633 699" stroke="white" stroke-opacity="0.5"/>
<path d="M47 298.5C73.3114 289.31 97.8119 251.633 145.948 320.911C200.47 399.38 254.991 492.977 134.556 479.969L103.435 472.916" stroke="white" stroke-opacity="0.5"/>
<path d="M46.5 339C82 335.5 97.121 292.788 142.109 347.175C193.065 408.776 255.5 494 106.5 474" stroke="white" stroke-opacity="0.5"/>
<path d="M43.5 384C67.7734 378.417 102.092 325.415 146.5 367.5C196.798 415.168 213.107 480.402 102 472.5" stroke="white" stroke-opacity="0.5"/>
<path d="M42 255.317C70.2396 245.483 103.004 230.354 154.667 304.488C213.184 388.457 267.5 485.5 142.5 481" stroke="white" stroke-opacity="0.5"/>
<path d="M944.5 698.5C1067.5 650.5 1118 586.913 1118 555.945C1118 486.721 1023.84 477.118 956.47 453.893C887.532 430.127 888.337 396.151 886.326 377.899C884.314 352.628 891.027 339.773 894.372 325.953C930.377 177.171 832.98 215.174 810.894 224.167C792.424 231.686 662.632 322.28 697.535 417.294C732.438 512.309 792.5 575 604 698.5" stroke="white" stroke-opacity="0.5"/>
<path d="M1211.5 528C1166.07 532.914 1145.83 468.409 1109.5 455.5C1058.49 437.376 1016.17 441.912 976.844 428.264C907.941 404.353 908.746 370.169 906.736 351.806C904.725 326.38 908.62 314 914.777 299.542C976.844 153.798 854.51 172.127 832.434 181.174C815.641 188.057 692.562 229.785 678.5 374.5C671.899 416.272 697.5 439.5 711 472.5C728.5 510 750 594 573.5 699" stroke="white" stroke-opacity="0.5"/>
<path d="M1211 469C1162.5 426.5 1032.93 419.089 993.504 404.035C924.432 377.661 928.06 350.14 926.044 329.885C924.029 301.84 940.574 268.602 943.925 253.266C1006.14 92.5081 856 113 816.089 143.885C801.889 154.874 658.29 239.744 659.455 374.872C659.589 390.522 661.893 405.801 671.646 418.454C701.99 455.24 743.333 543.153 665.957 600.511L538 698" stroke="white" stroke-opacity="0.5"/>
<path d="M1211.5 424C1154.47 402.997 1063.97 408.815 1020 393C942.966 365.291 949 323 949 300C949 271 977.5 236 982.855 217.819C1052.25 48.9277 873.01 92.6286 840.283 102.904C771.5 124.5 702.859 148.711 664.64 298.66C656.207 331.748 630.051 383.628 664.64 421.858C699.345 460.217 752.461 540.691 628.861 610.526C587.315 634 513.729 685.811 494 698" stroke="white" stroke-opacity="0.5"/>
<path d="M821.308 307.189C821.308 307.189 738.179 319.176 751.219 419.304C756.456 459.522 764.718 498.806 764.702 536.5C794.064 496.9 826.468 433 839 406C865.894 339.013 850.647 310.009 821.308 307.189Z" fill="#C8D4AF" fill-opacity="0.06"/>
<path d="M764.7 537.342C764.493 593.177 745.916 645.507 672.166 692.189M765.198 534.985C765.055 508.38 760.876 480.975 756.619 453.058C754.912 441.861 753.192 430.582 751.715 419.24C745.217 369.343 762.675 341.487 781.688 326.087C791.209 318.375 801.138 313.772 808.689 311.098C812.464 309.761 815.643 308.906 817.875 308.386C818.99 308.127 819.87 307.95 820.468 307.84C820.768 307.784 820.997 307.745 821.15 307.72C821.226 307.707 821.283 307.698 821.321 307.692C828.553 308.397 834.887 310.709 839.917 314.786C844.958 318.873 848.722 324.758 850.757 332.657C854.834 348.476 851.971 372.347 838.541 405.802C826.136 432.527 794.284 495.353 765.198 534.985Z" stroke="white" stroke-opacity="0.5"/>
<path d="M1211 599C1211 599 1169 545.5 1058 637" stroke="white" stroke-opacity="0.5"/>
<path d="M1204 619.5C1204 619.5 1162 557 1045 646.5" stroke="white" stroke-opacity="0.5"/>
<path d="M1117.76 215.784C1117.76 232.682 1100.13 243.189 1078.39 243.189C1056.65 243.189 1047.52 230.881 1047.52 213.984C1047.52 197.087 1056.65 185.189 1078.39 185.189C1100.13 185.189 1117.76 198.887 1117.76 215.784Z" fill="#C8D4AF" fill-opacity="0.06"/>
<path d="M1117.26 215.784C1117.26 224.034 1112.96 230.742 1105.95 235.407C1098.93 240.079 1089.19 242.689 1078.39 242.689C1067.62 242.689 1060.04 239.641 1055.16 234.576C1050.28 229.507 1048.02 222.347 1048.02 213.984C1048.02 205.621 1050.28 198.566 1055.16 193.6C1060.04 188.637 1067.61 185.689 1078.39 185.689C1099.98 185.689 1117.26 199.273 1117.26 215.784Z" stroke="white" stroke-opacity="0.5"/>
<path d="M1152.88 237.074C1152.88 270.971 1120.82 288.189 1076.64 288.189C1032.46 288.189 1010.14 251.092 1015 230.766C1018.53 216.047 1036.52 171.189 1080.7 171.189C1124.88 171.189 1152.88 206.935 1152.88 237.074Z" fill="#C8D4AF" fill-opacity="0.06"/>
<path d="M1152.38 237.074C1152.38 253.835 1144.47 266.461 1131.06 274.92C1117.63 283.393 1098.68 287.689 1076.64 287.689C1054.7 287.689 1038.21 278.481 1027.8 266.768C1017.38 255.03 1013.11 240.836 1015.49 230.882C1017.24 223.576 1022.59 208.754 1032.99 195.77C1043.39 182.797 1058.8 171.689 1080.7 171.689C1124.6 171.689 1152.38 207.204 1152.38 237.074Z" stroke="white" stroke-opacity="0.5"/>
<path d="M1189.79 251.414C1199.53 297.592 1145.13 322.189 1083.58 322.189C1022.02 322.189 990.923 270.824 997.703 242.68C1003.15 220.058 1032.77 163.711 1089.23 160.189C1150.78 160.189 1180.79 208.789 1189.79 251.414Z" fill="#C8D4AF" fill-opacity="0.06"/>
<path d="M1189.3 251.518C1191.71 262.954 1190.15 273.029 1185.52 281.719C1180.88 290.417 1173.15 297.761 1163.16 303.688C1143.19 315.548 1114.3 321.689 1083.58 321.689C1052.95 321.689 1029.92 308.913 1015.39 292.655C1000.83 276.373 994.85 256.659 998.189 242.797C1000.89 231.566 1009.62 211.896 1024.71 194.601C1039.8 177.316 1061.19 162.443 1089.24 160.689C1150.44 160.697 1180.33 209.001 1189.3 251.518Z" stroke="white" stroke-opacity="0.5"/>
<path d="M1212 265C1166.66 155.452 1136.65 140.045 1096.5 142.5C1022.42 147.03 986.149 230.697 981.508 260.173C961.226 388.991 1183.51 365.058 1210.28 315.079" stroke="white" stroke-opacity="0.5"/>
<path d="M1211.5 226C1168 142.5 1132.61 130.5 1096 130.5C1057.9 130.5 1040.32 144.635 1017 173.5C990.675 206.083 979.602 237.24 972.892 259.73C923.545 425.122 1178.15 381.398 1211.5 392" stroke="white" stroke-opacity="0.5"/>
<path d="M1212 186.5C1164.47 115.776 1141.02 112 1104.34 112C1066.17 112 1048.56 124.141 1025.19 148.934C998.816 176.921 987.723 203.682 981 223" stroke="white" stroke-opacity="0.5"/>
<path d="M41.9492 29.2566C145.589 44.2844 194.115 37.5264 244.5 1.5" stroke="white" stroke-opacity="0.5"/>
<path d="M41.9492 63.9441C145.552 85.3505 195.911 75.9538 240.715 37.8052L286.5 1.5" stroke="white" stroke-opacity="0.5"/>
<path d="M41.9492 106.567C145.582 127.814 214.421 118.805 328.5 1" stroke="white" stroke-opacity="0.5"/>
<path d="M38.0469 153.808C141.283 175.007 208.206 174.505 360 1" stroke="white" stroke-opacity="0.5"/>
<path d="M335.098 150.035C322.598 171.558 280.205 183.544 268.713 178.535C257.22 173.525 265.744 162.41 278.244 140.888C290.744 119.365 326.854 89.4381 338.346 94.4479C349.839 99.4578 347.598 128.512 335.098 150.035Z" fill="#C8D4AF" fill-opacity="0.06"/>
<path d="M334.64 149.835C328.482 160.437 314.908 168.752 301.359 173.795C294.596 176.312 287.873 178.001 282.137 178.75C276.374 179.503 271.699 179.294 268.964 178.102C266.179 176.888 264.676 175.339 264.101 173.412C263.518 171.461 263.86 169.039 264.975 166.027C266.089 163.02 267.949 159.487 270.325 155.343C271.581 153.151 272.971 150.807 274.465 148.288C275.801 146.033 277.221 143.638 278.702 141.087C284.91 130.4 297.009 117.586 309.001 108.068C314.995 103.31 320.938 99.3957 326.078 96.9845C328.649 95.7787 331 94.958 333.044 94.5893C335.091 94.2202 336.789 94.3108 338.095 94.8803C340.796 96.0574 342.751 98.6769 343.943 102.383C345.132 106.081 345.539 110.797 345.198 116.054C344.516 126.565 340.852 139.14 334.64 149.835Z" stroke="white" stroke-opacity="0.5"/>
<path d="M355.427 155.606C338.389 184.941 276.388 199.439 259.008 191.863C241.628 184.287 253.493 169.245 270.531 139.91C287.569 110.575 339.016 70.7568 356.396 78.333C373.776 85.9092 372.465 126.27 355.427 155.606Z" fill="#C8D4AF" fill-opacity="0.06"/>
<path d="M354.968 155.406C346.552 169.897 326.963 180.797 307.203 187.128C297.339 190.288 287.47 192.297 278.995 193.045C270.498 193.795 263.479 193.27 259.259 191.431C254.99 189.569 252.59 187.284 251.578 184.497C250.561 181.697 250.913 178.306 252.36 174.162C253.806 170.019 256.323 165.186 259.558 159.535C261.269 156.547 263.167 153.351 265.207 149.918C267.033 146.846 268.971 143.583 270.989 140.11C279.46 125.524 296.521 108.288 313.647 95.6415C322.207 89.3205 330.758 84.1655 338.232 81.0641C345.743 77.9478 352.018 76.9663 356.145 78.7653C360.334 80.5915 363.447 84.417 365.478 89.663C367.508 94.9049 368.437 101.519 368.295 108.834C368.012 123.465 363.445 140.812 354.968 155.406Z" stroke="white" stroke-opacity="0.5"/>
<path d="M95.5 471C135.799 477.633 177.553 468.566 177.553 445.375C177.553 422.184 134.005 378.189 95.3456 378.189C86.6636 378.189 63.4394 383.648 39.998 405.483" stroke="white" stroke-opacity="0.5"/>
<path d="M45 439.5C127 473 151 453.914 151 439.5C151 419.5 108.557 393 82.4201 393C76.5503 393 59.8485 399.429 44 413" stroke="white" stroke-opacity="0.5"/>
<path d="M673 1C673 30.2711 638.771 48 591.785 48C544.798 48 514 30.2711 514 1" stroke="white" stroke-opacity="0.5"/>
<path d="M633 1.5C633 14.2728 617.006 33.5 595 33.5C572.994 33.5 559 13.7728 559 1" stroke="white" stroke-opacity="0.5"/>
<path d="M723 1C706.72 27.9167 670.699 64.1888 592.753 64.1888C535.348 61.3555 465 37.1897 465 1" stroke="white" stroke-opacity="0.5"/>
<path d="M766.5 1C745.363 39.6001 707.774 96.8473 601.275 104.567C494.775 112.287 442 42.1985 442 1.5" stroke="white" stroke-opacity="0.5"/>
<path d="M785 1C763.863 39.6001 703.5 127.378 595.775 127.378C488.049 127.378 412.5 89 436.5 1" stroke="white" stroke-opacity="0.5"/>
<path d="M523.432 380.516C534.164 397.914 515.779 417.945 479.363 434.805C442.946 451.665 404.725 451.228 393.993 433.83C383.261 416.432 396.787 392.056 433.204 375.196C469.62 358.337 512.7 363.118 523.432 380.516Z" fill="#C8D4AF" fill-opacity="0.06"/>
<path d="M522.978 380.726C528.202 389.194 526.392 398.351 518.653 407.56C510.908 416.776 497.28 425.963 479.1 434.379C460.948 442.783 442.369 446.865 427.018 446.689C411.636 446.514 399.663 442.075 394.447 433.62C389.199 425.112 389.845 414.848 396.377 404.568C402.91 394.284 415.314 384.026 433.466 375.622C451.594 367.23 471.374 364.227 487.94 365.482C504.549 366.741 517.755 372.257 522.978 380.726Z" stroke="white" stroke-opacity="0.52"/>
<path d="M554.537 383.102C571.204 410.122 543.687 440.752 488.707 466.205C433.728 491.659 375.647 490.39 358.98 463.37C342.313 436.35 362.358 398.94 417.338 373.486C472.317 348.032 537.87 356.082 554.537 383.102Z" fill="#C8D4AF" fill-opacity="0.06"/>
<path d="M554.084 383.312C562.279 396.598 559.659 410.812 548.061 424.942C536.455 439.083 515.904 453.067 488.445 465.78C461.013 478.48 432.83 484.502 409.454 483.991C386.051 483.479 367.621 476.432 359.434 463.16C351.215 449.836 352.014 433.905 361.753 418.092C371.495 402.275 390.168 386.611 417.6 373.912C445.007 361.223 475.043 356.889 500.289 359.089C525.573 361.292 545.889 370.027 554.084 383.312Z" stroke="white" stroke-opacity="0.6"/>
<path d="M563.5 388.5C585.236 423.738 575.427 459.581 504.44 492.445C433.452 525.31 353.777 524.366 334.285 489.185C322.274 459.965 346.141 396.803 417.128 363.938C481.291 342.126 528.5 354 563.5 388.5Z" fill="#C8D4AF" fill-opacity="0.06"/>
<path d="M563.079 388.763C573.857 406.261 576.78 423.852 568.26 441.146C559.716 458.488 539.629 475.607 504.177 492.02C468.744 508.424 431.159 516.382 400.027 515.858C368.866 515.333 344.372 506.327 334.764 489.02C328.847 474.589 331.752 451.65 345.052 428.167C358.343 404.699 381.978 380.765 417.366 364.375C449.374 353.498 477.108 351.036 501.176 355.566C525.223 360.092 545.658 371.606 563.079 388.763Z" stroke="white" stroke-opacity="0.5"/>
<path d="M589.243 434.112C589.243 481.888 548.038 496.706 468.052 531.871C388.875 560.707 302.426 544.482 302.426 496.706C302.426 473.249 323.715 440.427 346.054 408.793C369.216 375.995 375.735 356.347 435.735 344.792C495.735 333.236 589.243 386.335 589.243 434.112Z" fill="#C8D4AF" fill-opacity="0.06"/>
<path d="M588.743 434.112C588.743 445.979 586.185 455.773 581.124 464.343C576.06 472.918 568.47 480.299 558.357 487.31C540.641 499.591 515.28 510.674 482.405 525.04C477.712 527.091 472.865 529.209 467.866 531.407C428.356 545.793 387.05 548.93 355.647 542.528C339.943 539.327 326.749 533.746 317.491 526.027C308.244 518.318 302.926 508.479 302.926 496.706C302.926 485.108 308.196 471.13 316.303 456.053C324.402 440.989 335.294 424.896 346.463 409.081C349.157 405.266 351.623 401.635 353.97 398.178C361.744 386.73 368.219 377.195 377.408 369.204C389.342 358.827 405.877 351.051 435.83 345.283C465.669 339.536 503.921 349.867 534.739 367.635C550.14 376.515 563.654 387.236 573.312 398.697C582.974 410.164 588.743 422.33 588.743 434.112Z" stroke="white" stroke-opacity="0.5"/>
<path d="M619.485 441.122C619.485 492.955 563.456 519.504 472.096 557.656C381.658 588.94 282.915 571.338 282.915 519.504C282.915 494.056 304.664 451.241 330.181 416.921C341.455 401.757 364.409 368.519 347.295 339.478C330.181 310.437 319.587 259.961 365.224 248.898C410.86 237.835 453.639 250.161 453.639 304.378C453.639 348.5 512.492 349.215 528.432 359.825C600.13 388.837 619.485 408.371 619.485 441.122Z" fill="#C8D4AF" fill-opacity="0.06"/>
<path d="M528.155 360.241L528.198 360.269L528.245 360.288C564.088 374.792 586.778 386.902 600.508 399.441C614.199 411.944 618.985 424.878 618.985 441.122C618.985 466.812 605.12 486.275 579.763 504.11C554.391 521.957 517.603 538.11 471.917 557.188C426.775 572.801 379.575 576.208 343.686 569.258C325.738 565.783 310.653 559.724 300.067 551.34C289.492 542.965 283.415 532.281 283.415 519.504C283.415 506.894 288.812 489.911 297.431 471.754C306.042 453.612 317.841 434.356 330.582 417.219C336.223 409.632 344.818 397.482 349.854 383.574C354.89 369.66 356.386 353.921 347.726 339.224C339.199 324.756 332.317 304.974 333.227 287.472C333.682 278.729 336.079 270.58 341.16 263.938C346.237 257.301 354.026 252.127 365.341 249.384C388.101 243.866 410.067 244.204 426.315 252.602C442.518 260.976 453.139 277.42 453.139 304.378C453.139 315.533 456.864 323.969 462.711 330.497C468.548 337.013 476.478 341.606 484.864 345.13C492.593 348.378 500.745 350.731 508.042 352.838C508.662 353.017 509.275 353.194 509.882 353.37C517.669 355.627 524.249 357.641 528.155 360.241Z" stroke="white" stroke-opacity="0.5"/>
<path d="M642.899 449.465C642.899 504.709 559.982 549.562 451.85 590.224C344.81 623.567 252.672 582.294 252.672 527.049C252.672 499.926 280.465 468.981 303.076 429.479C313.368 411.5 330.648 378.305 310.393 347.352C290.138 316.4 284.833 254.554 338.847 242.763C392.861 230.972 488.434 225.529 488.434 284.178C488.434 331.5 516.496 354.593 535.131 362.817C617.377 399.116 642.899 414.559 642.899 449.465Z" fill="#C8D4AF" fill-opacity="0.06"/>
<path d="M642.399 449.465C642.399 476.821 621.863 501.715 587.644 524.899C553.451 548.064 505.74 569.425 451.688 589.751C398.263 606.39 348.587 604.4 312.29 591.387C275.961 578.361 253.172 554.362 253.172 527.049C253.172 513.64 260.047 499.23 269.822 483.166C273.751 476.708 278.137 470.001 282.718 462.996C283.828 461.298 284.95 459.582 286.08 457.848C291.867 448.967 297.85 439.616 303.51 429.728C313.785 411.778 331.251 378.313 310.811 347.078C300.743 331.693 294.389 308.614 297.264 287.941C298.701 277.613 302.438 267.904 309.145 260.052C315.85 252.203 325.546 246.178 338.954 243.251C365.932 237.362 403.262 233.066 433.823 237.55C449.105 239.792 462.644 244.223 472.352 251.702C482.036 259.163 487.934 269.675 487.934 284.178C487.934 331.741 516.155 354.989 534.929 363.275C576.066 381.43 602.948 394.342 619.553 407.06C627.846 413.412 633.55 419.698 637.184 426.539C640.816 433.377 642.399 440.803 642.399 449.465Z" stroke="white" stroke-opacity="0.5"/>
<path d="M662.41 450.942C662.41 509.352 574.61 577.904 447.863 620.897C332.863 653.209 224.361 606.656 207.448 552C205.448 545.537 204.784 532.729 207.448 527.089C217.171 506.5 246.973 492.707 273.478 450.942C286.5 430.422 305.796 396.835 282.054 364.109C258.312 331.383 256.807 269.037 313.253 244.376C369.699 219.714 521.699 207.231 519.166 269.756C515.911 350.129 538.699 353.468 555.791 364.109C633.924 412.755 662.41 414.036 662.41 450.942Z" fill="#C8D4AF" fill-opacity="0.06"/>
<path d="M661.91 450.942C661.91 479.907 640.12 511.518 602.357 541.308C564.622 571.076 511.044 598.936 447.715 620.419C390.317 636.544 334.549 632.986 291.03 618.587C247.476 604.175 216.312 578.951 207.926 551.852C206.944 548.679 206.282 543.911 206.199 539.227C206.116 534.526 206.62 530.013 207.9 527.302C210.299 522.223 213.945 517.545 218.503 512.722C222.174 508.838 226.418 504.879 231.061 500.547C232.189 499.495 233.34 498.421 234.512 497.321C246.501 486.069 260.614 472.145 273.9 451.21C280.412 440.947 288.535 427.358 292.04 412.215C295.55 397.049 294.43 380.317 282.459 363.815C270.665 347.559 264.386 323.925 268.076 301.299C271.762 278.697 285.395 257.093 313.453 244.834C341.593 232.539 393.627 223.261 438.309 224.871C460.65 225.676 481.095 229.202 495.779 236.394C510.442 243.576 519.289 254.367 518.667 269.736C517.038 309.95 521.916 331.001 529.421 343.342C535.396 353.166 543.039 357.441 550.174 361.43C552.004 362.454 553.8 363.459 555.527 364.533C575.071 376.702 591.51 385.908 605.171 393.447C606.851 394.374 608.488 395.276 610.084 396.155C621.473 402.426 630.738 407.528 638.127 412.347C646.549 417.84 652.482 422.933 656.317 428.915C660.144 434.885 661.91 441.785 661.91 450.942Z" stroke="white" stroke-opacity="0.5"/>
<path d="M539.489 364.473C522.43 353.856 505.135 348.986 508.385 268.802C510.912 206.424 353.757 220.417 297.42 245.021C241.083 269.625 242.585 331.824 266.282 364.473C289.978 397.122 278.125 439.241 262.515 456.288C225.562 496.642 182.909 511.853 128.484 480.202L109.264 475.229" stroke="white" stroke-opacity="0.5"/>
<path d="M107.312 475.041C165.813 487.7 203.593 501.739 240.557 462.134C256.172 445.403 255.176 415.771 240.557 378.496C225.939 341.222 212.433 288.995 275.717 250.247C339 211.5 562.64 195.284 560.112 256.504C556.862 335.198 545.29 346.5 574.5 366.5C592.646 378.925 619.9 398.684 642 415" stroke="white" stroke-opacity="0.5"/>
<path d="M98.5 471.5C168.303 484.632 204.728 500.69 234 448C246.5 425.5 234 409.5 220.672 373.221C207.343 336.941 182.175 270.154 262.624 240.185C343.073 210.217 481.35 214.292 527.676 175.644C536.074 168.383 541.492 155.266 515.485 140.51C489.477 125.754 380.423 107.106 430 1" stroke="white" stroke-opacity="0.5"/>
<path d="M37.0713 501.189C51.2702 501.189 78.0456 491.243 78.0456 480.663C78.0456 470.082 55.1989 462 41 462" stroke="white" stroke-opacity="0.5"/>
<path d="M40 496C48.6633 496 66 488.06 66 480.5C66 472.94 49.1633 468 40.5 468" stroke="white" stroke-opacity="0.5"/>
<path d="M38.0469 537.189C65.7685 537.189 118.044 517.807 118.044 497.189C118.044 476.57 70 463.5 42.5 461.5" stroke="white" stroke-opacity="0.5"/>
<path d="M38.0469 567.189C83.0095 567.189 167.797 543.761 167.797 518.838C167.797 493.915 85.9626 461 41 461" stroke="white" stroke-opacity="0.5"/>
<path d="M368.796 162.43C357.567 181.763 330.747 195.981 303.582 204.04C290.018 208.064 276.409 210.541 264.687 211.352C252.944 212.165 243.168 211.301 237.217 208.707C231.218 206.092 227.778 202.932 226.27 199.107C224.759 195.273 225.153 190.686 227.031 185.139C228.909 179.592 232.249 173.144 236.552 165.623C238.826 161.647 241.356 157.393 244.074 152.823C246.506 148.736 249.088 144.395 251.77 139.776C263.056 120.345 286.149 97.5565 309.468 80.9451C321.124 72.6418 332.81 65.901 343.077 61.8968C353.375 57.8803 362.109 56.6701 367.97 59.2251C373.892 61.8065 378.343 67.0696 381.324 74.1887C384.302 81.3049 385.793 90.2358 385.822 100.076C385.879 119.758 380.087 142.99 368.796 162.43Z" stroke="white" stroke-opacity="0.5"/>
<path d="M1158.18 625.494C1180.48 633.626 1181.41 654.259 1165.91 672.786C1163.99 675.071 1160.88 677.165 1156.78 679.061C1152.7 680.956 1147.67 682.636 1141.98 684.102C1130.6 687.034 1116.66 689.089 1102.49 690.293C1088.32 691.498 1073.94 691.851 1061.7 691.389C1049.44 690.926 1039.39 689.647 1033.82 687.616C1031.03 686.597 1029.34 685.546 1028.5 684.47C1027.67 683.413 1027.65 682.31 1028.25 681.114C1028.87 679.895 1030.15 678.559 1031.99 677.084C1033.82 675.612 1036.17 674.033 1038.86 672.326C1040.66 671.185 1042.62 669.989 1044.67 668.733C1054.84 662.505 1067.39 654.818 1075.47 645.171C1083.31 635.806 1098.34 628.829 1114.31 625.223C1130.27 621.618 1147.01 621.421 1158.18 625.494Z" stroke="white" stroke-opacity="0.5"/>
<path d="M1165.9 618.868C1181.44 624.533 1190.23 633.629 1192.83 644.068C1195.43 654.511 1191.84 666.329 1182.52 677.458C1180.25 680.165 1176.59 682.577 1171.79 684.697C1167 686.816 1161.11 688.63 1154.43 690.148C1141.09 693.186 1124.69 695.03 1107.88 695.818C1091.07 696.605 1073.87 696.337 1058.92 695.159C1043.97 693.981 1031.31 691.896 1023.56 689.069C1019.69 687.657 1017.34 686.147 1016.17 684.571C1015.01 683.011 1014.99 681.359 1015.85 679.594C1016.72 677.809 1018.5 675.893 1020.98 673.845C1023.46 671.8 1026.6 669.653 1030.16 667.407C1033.55 665.261 1037.31 663.035 1041.2 660.731C1041.38 660.625 1041.56 660.52 1041.73 660.414C1045.81 657.999 1050.01 655.501 1054.06 652.932C1062.16 647.801 1069.71 642.355 1074.47 636.671C1086.3 622.539 1101.36 615.275 1117.33 612.935C1133.33 610.59 1150.3 613.18 1165.9 618.868Z" stroke="white" stroke-opacity="0.5"/>
<path d="M1142.04 629.942C1150.72 633.105 1155.13 638.795 1155.75 645.638C1156.38 652.491 1153.21 660.517 1146.69 668.313C1143.52 672.101 1137.13 675.292 1128.91 677.836C1120.71 680.372 1110.8 682.23 1100.72 683.4C1090.65 684.569 1080.44 685.047 1071.66 684.833C1062.85 684.618 1055.54 683.709 1051.22 682.133C1049.07 681.347 1047.87 680.471 1047.36 679.546C1046.85 678.635 1046.99 677.622 1047.68 676.477C1048.38 675.319 1049.64 674.043 1051.34 672.652C1053.04 671.264 1055.14 669.786 1057.5 668.226C1059.51 666.895 1061.7 665.513 1063.97 664.079C1064.36 663.831 1064.75 663.582 1065.15 663.331C1067.84 661.631 1070.6 659.865 1073.28 658.047C1078.64 654.417 1083.67 650.554 1087.02 646.557C1100.04 631.004 1124.68 623.612 1142.04 629.942Z" stroke="white" stroke-opacity="0.5"/>
<path d="M1131.09 638.358C1135.09 639.816 1136.76 642.952 1136.36 647.03C1135.96 651.113 1133.48 656.094 1129.29 661.104C1127.26 663.524 1123.65 665.733 1119.16 667.639C1114.68 669.541 1109.39 671.115 1104.09 672.283C1098.78 673.451 1093.49 674.208 1089 674.483C1084.49 674.759 1080.89 674.541 1078.9 673.818C1077.93 673.463 1077.47 673.031 1077.33 672.565C1077.18 672.093 1077.33 671.508 1077.81 670.784C1078.78 669.316 1080.95 667.483 1083.74 665.365C1084.89 664.484 1086.17 663.547 1087.49 662.576C1089.29 661.26 1091.17 659.879 1092.96 658.485C1096.11 656.042 1099.13 653.47 1101.29 650.893C1105.46 645.903 1110.92 642.017 1116.34 639.76C1121.76 637.501 1127.08 636.894 1131.09 638.358Z" stroke="white" stroke-opacity="0.5"/>
<path d="M990 200C1023.5 92 1112.8 11.3 1212 164.5" stroke="white" stroke-opacity="0.5"/>
<path d="M41.5 192.5C84.1667 208.333 179.6 224.9 220 164.5C270.5 89 339.838 39.9745 368.5 44.5C406.5 50.5 478 221.5 225 218C192.167 214 109.5 212.2 41.5 237" stroke="white" stroke-opacity="0.5"/>
<path d="M134 436.002C134.359 438.879 133.424 440.948 131.468 442.472C129.483 444.019 126.43 445.015 122.551 445.646C116.059 446.701 107.441 446.708 98.0863 446.715C96.2587 446.717 94.4029 446.718 92.5293 446.727C81.1244 446.784 73.3543 445.168 68.2656 442.099C63.2283 439.061 60.7441 434.551 60 428.584C59.2437 422.52 59.2984 416.332 62.2951 411.646C65.2735 406.99 71.2332 403.71 82.5687 403.654C93.86 403.598 106.369 408.707 116.258 415.369C121.199 418.697 125.465 422.398 128.583 426.01C131.712 429.633 133.639 433.112 134 436.002Z" stroke="white" stroke-opacity="0.5"/>
<path d="M1103.5 591.5C1122.5 571 1192.3 544.9 1211.5 582.5" stroke="white" stroke-opacity="0.5"/>
<path d="M905 1.5C915 12.8333 948.9 42 1002.5 42C1069.5 42 1162 68 1211.5 146" stroke="white" stroke-opacity="0.5"/>
</svg>
