<svg width="55" height="73" viewBox="0 0 55 73" fill="none" xmlns="http://www.w3.org/2000/svg">
<path d="M3.92 36.04C3.68 36.04 3.41333 36.04 3.12 36.04C2.82667 36.04 2.54667 36.0267 2.28 36V34.2H3.6C4.45333 34.2267 5.04 34.08 5.36 33.76C5.70667 33.4133 5.88 32.7867 5.88 31.88V12.36H8.4V30.8C8.4 32.1333 8.28 33.1867 8.04 33.96C7.8 34.7333 7.36 35.28 6.72 35.6C6.08 35.8933 5.14667 36.04 3.92 36.04ZM24.7509 36.48C23.6043 36.48 22.5909 36.3467 21.7109 36.08C20.8309 35.8133 20.1243 35.2667 19.5909 34.44C19.0843 33.5867 18.8309 32.3067 18.8309 30.6V17.28C18.8309 15.7867 19.0843 14.6667 19.5909 13.92C20.1243 13.1733 20.8443 12.68 21.7509 12.44C22.6576 12.1733 23.6843 12.04 24.8309 12.04C25.9776 12.04 26.9909 12.1733 27.8709 12.44C28.7776 12.7067 29.4843 13.2133 29.9909 13.96C30.5243 14.7067 30.7909 15.8133 30.7909 17.28V30.56C30.7909 32.2933 30.5243 33.5867 29.9909 34.44C29.4843 35.2667 28.7776 35.8133 27.8709 36.08C26.9909 36.3467 25.9509 36.48 24.7509 36.48ZM24.7909 34.92C25.4843 34.92 26.0843 34.84 26.5909 34.68C27.1243 34.4933 27.5376 34.1467 27.8309 33.64C28.1243 33.1067 28.2709 32.32 28.2709 31.28V17.28C28.2709 16.24 28.1243 15.4667 27.8309 14.96C27.5376 14.4267 27.1243 14.08 26.5909 13.92C26.0576 13.7333 25.4576 13.64 24.7909 13.64C24.0976 13.64 23.4843 13.7333 22.9509 13.92C22.4443 14.08 22.0443 14.4267 21.7509 14.96C21.4576 15.4667 21.3109 16.24 21.3109 17.28V31.28C21.3109 32.32 21.4576 33.1067 21.7509 33.64C22.0443 34.1467 22.4443 34.4933 22.9509 34.68C23.4843 34.84 24.0976 34.92 24.7909 34.92Z" fill="white"/>
<path d="M2.457 61V37.951H4.914V48.013H11.661V37.951H14.079V61H11.661V49.885H4.914V61H2.457Z" fill="white"/>
<path d="M19.457 61V37.951H21.602L28.817 55.969V37.951H31.04V61H28.817L21.68 43.645V61H19.457Z" fill="white"/>
<path d="M47.0072 60.9117L35.6224 60.8405L35.6298 59.6675L36.8499 59.4912C36.3907 59.3656 36.0398 59.0798 35.7972 58.6336C35.5547 58.1874 35.4349 57.7266 35.4379 57.2513C35.4429 56.4386 35.5923 55.8492 35.8859 55.4831C36.1643 55.1015 36.5338 54.8584 36.9945 54.754C37.4398 54.6494 37.9308 54.5988 38.4675 54.6022L47.0463 54.6558L47.0374 56.0818L38.6656 56.0294C38.3896 56.0277 38.1212 56.0337 37.8604 56.0474C37.5997 56.0611 37.3693 56.121 37.1693 56.2271C36.9541 56.3178 36.7844 56.4777 36.6603 56.7069C36.5362 56.9362 36.4727 57.2731 36.47 57.7178C36.4676 58.1011 36.5423 58.4159 36.6941 58.6622C36.8306 58.893 36.9982 59.0704 37.1968 59.1943C37.3801 59.3028 37.5559 59.3806 37.7243 59.4276L47.0161 59.4857L47.0072 60.9117ZM49.7752 48.598C49.7732 48.92 49.7484 49.2112 49.7008 49.4716C49.6532 49.7166 49.6137 49.9081 49.5822 50.0459L48.7312 50.0406C48.7622 49.9947 48.7934 49.8953 48.8251 49.7421C48.8568 49.5737 48.8733 49.3821 48.8747 49.1674C48.8761 48.9374 48.8393 48.6842 48.7644 48.4077C48.6896 48.1159 48.4764 47.8769 48.1249 47.6907C47.9721 47.5978 47.7964 47.497 47.5978 47.3884C47.3992 47.2645 47.1694 47.2324 46.9083 47.2921L35.6912 49.844L35.7004 48.3721L45.6493 46.3412L45.6491 46.3642L35.726 44.2781L35.7344 42.9212L46.6667 45.4736C47.7232 45.7102 48.503 46.0754 49.0059 46.5692C49.5242 47.0631 49.7806 47.7394 49.7752 48.598Z" fill="white"/>
</svg>
