<svg width="26" height="16" viewBox="0 0 26 16" fill="none" xmlns="http://www.w3.org/2000/svg">
<path d="M24.9167 2.28571H1.08333C0.4875 2.28571 0 1.77143 0 1.14286C0 0.514286 0.4875 0 1.08333 0H24.9167C25.5125 0 26 0.514286 26 1.14286C26 1.77143 25.5125 2.28571 24.9167 2.28571ZM24.9167 9.14286H1.08333C0.4875 9.14286 0 8.62857 0 8C0 7.37143 0.4875 6.85714 1.08333 6.85714H24.9167C25.5125 6.85714 26 7.37143 26 8C26 8.62857 25.5125 9.14286 24.9167 9.14286ZM24.9167 16H1.08333C0.4875 16 0 15.4857 0 14.8571C0 14.2286 0.4875 13.7143 1.08333 13.7143H24.9167C25.5125 13.7143 26 14.2286 26 14.8571C26 15.4857 25.5125 16 24.9167 16Z" fill="white"/>
</svg>
