<svg width="194" height="30" viewBox="0 0 194 30" fill="none" xmlns="http://www.w3.org/2000/svg">
<path d="M121.541 28.6178C121.541 28.6178 125.774 30.0018 131.213 30.0018C137.014 30.0018 139.68 29.2793 139.68 29.2793V24.3398C139.68 24.3398 136.806 25.0013 132.727 25.0013C129.173 25.0013 127.028 24.4573 127.028 24.4573V17.468H138.007V12.5284H127.028V5.84377C127.028 5.84377 129.173 5.36069 132.414 5.36069C136.021 5.36069 139.261 6.0222 139.261 6.0222V1.02174C139.261 1.02174 136.387 0.299316 131.734 0.299316C125.567 0.299316 121.541 1.56574 121.541 1.56574V28.6178ZM43.1787 17.4114C43.0201 17.8336 42.8652 18.6169 42.7595 19.0391C42.6537 18.556 42.4989 17.7726 42.3403 17.4114L37.4797 3.07589C36.645 0.66488 35.3874 0.425522 33.0345 0.425522C32.1999 0.425522 30.5268 0.547377 30.5268 0.547377L28.0191 29.6405H33.5595L34.7605 10.1218L39.9874 24.8794C40.4066 26.024 41.1884 26.5071 42.7595 26.5071C44.3306 26.5071 45.1123 26.024 45.5315 24.8794L50.7585 10.1218L51.9594 29.6405H57.4998L54.9921 0.547377C54.9921 0.547377 53.319 0.425522 52.4844 0.425522C50.1315 0.425522 48.8248 0.725808 48.0392 3.07589L43.1787 17.4114ZM15.473 23.3736C14.272 23.9176 11.4471 25.0013 9.30572 25.0013C7.00572 25.0013 5.27979 24.0961 5.27979 21.2063C5.27979 18.6778 6.48077 17.2286 9.61918 17.1111L15.4201 16.8717V23.378H15.473V23.3736ZM12.1798 0.364594C7.26631 0.364594 3.399 1.74853 1.88078 2.65375L3.08176 7.41049C3.08176 7.41049 6.8471 5.84377 10.6087 5.84377C13.7962 5.84377 15.4164 6.86649 15.4164 10.483V12.5328H10.6124C2.45861 12.5328 0 16.8717 0 21.6285C0 27.952 4.28652 30.0018 8.20671 30.0018C12.7538 30.0018 15.3673 27.8345 15.7336 27.8345C15.9942 27.8345 16.9346 28.979 21.0663 28.979V8.79878C20.9605 2.77561 17.7201 0.364594 12.1798 0.364594ZM78.4641 23.3736C77.2631 23.9176 74.4382 25.0013 72.2968 25.0013C69.9968 25.0013 68.2709 24.0961 68.2709 21.2063C68.2709 18.6778 69.4719 17.2286 72.6103 17.1111L78.4112 16.8717V23.378H78.4641V23.3736ZM75.1709 0.364594C70.2574 0.364594 66.3901 1.74853 64.8719 2.65375L66.0729 7.41049C66.0729 7.41049 69.8382 5.84377 73.5998 5.84377C76.7873 5.84377 78.4075 6.86649 78.4075 10.483V12.5328H73.5998C65.4459 12.5328 62.9873 16.8717 62.9873 21.6285C62.9873 27.952 67.2738 30.0018 71.194 30.0018C75.7411 30.0018 78.3546 27.8345 78.7209 27.8345C78.9815 27.8345 79.9219 28.979 84.0536 28.979V8.79878C83.9554 2.77561 80.7112 0.364594 75.1709 0.364594ZM162.839 22.3509C161.532 23.0734 158.658 24.3398 156.044 24.3398C152.279 24.3398 151.599 22.3509 151.599 17.8335V0.603955C151.599 0.603955 151.233 0.603955 150.765 0.603955C149.511 0.603955 146.739 0.843316 146.059 1.0261V18.6169C146.059 26.3287 147.679 30.0018 154.473 30.0018C159.647 30.0018 162.68 27.7126 162.888 27.7126C162.941 27.7126 164.769 28.979 168.326 28.979V1.03045C167.907 0.969522 165.241 0.608305 163.881 0.608305C163.36 0.608305 162.782 0.608305 162.782 0.608305V22.3553H162.839V22.3509ZM174.913 28.979C174.913 28.979 178.365 30.0018 183.119 30.0018C187.667 30.0018 193.366 28.2566 193.366 21.1454C193.366 16.5062 190.386 14.5782 185.578 12.5328C182.965 11.4491 180.77 10.4264 180.77 8.37664C180.77 7.41484 181.397 5.42598 184.743 5.42598C187.829 5.42598 191.016 7.05362 191.016 7.05362L192.429 2.29689C191.489 1.75288 188.456 0.308016 184.222 0.308016C179.675 0.308016 175.177 3.08025 175.177 8.7422C175.177 14.526 179.724 16.3321 183.331 17.6595C185.737 18.6213 187.776 19.5874 187.776 21.4544C187.776 23.2605 186.941 24.8272 182.81 24.8272C179.464 24.8272 175.857 23.9829 175.857 23.9829L174.913 28.979ZM97.5439 5.9047C98.4314 5.72191 100.21 5.42162 101.936 5.42162C105.962 5.42162 109.097 8.01107 109.097 15.0004C109.097 21.8069 107.582 25.0013 101.464 25.0013C99.4775 25.0013 97.5439 24.701 97.5439 24.701V5.9047ZM102.197 0.364594C99.0621 0.364594 94.6698 0.965168 92.0035 2.10975V29.1575C94.1977 29.7015 98.3823 30.0018 101.256 30.0018C111.136 30.0018 114.951 25.5453 114.951 15.0004C114.954 5.84377 110.09 0.364594 102.197 0.364594Z" fill="#F5F5F5"/>
</svg>
