<svg width="287" height="638" viewBox="0 0 287 638" fill="none" xmlns="http://www.w3.org/2000/svg">
<path d="M260.01 121.503C255.766 142.224 248.088 166.886 232.995 186.359C217.922 205.807 195.442 220.1 161.511 220.103C154.623 219.793 147.803 219.636 141.131 219.482C132.791 219.29 124.684 219.104 116.967 218.63C103.128 217.781 90.6988 216.013 80.764 211.673C52.9234 188.767 29.9855 141.453 15.5 90.5333C15.5326 58.1185 38.3235 35.1489 65.6736 20.5015C93.0181 5.85697 124.771 -0.381304 142.426 0.599535C172.211 7.86326 199.587 33.5341 223.634 59.443L223.965 59.7998C234.105 70.7253 244.037 81.4257 250.987 91.7524C258.019 102.201 261.924 112.16 260.01 121.503Z" stroke="white"/>
<path d="M115.728 366.682C136.74 364.262 162.567 363.878 185.772 372.155C208.948 380.422 229.53 397.333 240.101 429.575C241.951 436.217 243.926 442.747 245.858 449.136C248.273 457.12 250.62 464.882 252.573 472.362C256.081 485.797 258.273 498.175 257.233 508.978C252.951 531.384 248.031 545.8 242.299 555.579C236.577 565.34 230.033 570.5 222.446 574.375C218.442 576.419 214.127 578.11 209.48 579.931C196.521 585.009 180.982 591.098 162.407 608.69C131.609 618.729 102.7 604.228 80.2727 582.809C57.8405 561.385 42.0235 533.154 37.4572 516.072C35.0816 485.519 48.3855 460.602 65.5225 429.672C67.1208 426.788 68.7418 423.806 70.3867 420.781C76.2674 409.966 82.4538 398.588 89.0046 389.045C93.1941 382.942 97.5167 377.614 101.982 373.678C106.45 369.74 111.027 367.224 115.728 366.682Z" fill="#FFFEFE" stroke="white"/>
</svg>
