<svg width="241" height="47" viewBox="0 0 241 47" fill="none" xmlns="http://www.w3.org/2000/svg">
<path d="M31.8713 21.6112C31.7678 19.916 31.3677 18.2156 30.5533 16.7467L23.6764 3.27986C23.1727 2.25852 22.7679 1.13189 22.5655 0L22.2643 0.563317C20.5462 3.84317 20.5462 8.0338 22.2643 11.3137L27.828 22.064C29.546 25.3438 29.546 29.5345 27.828 32.8143L27.522 33.3776C27.3196 32.2457 26.9148 31.1139 26.4112 30.0978L21.3511 20.253L18.1127 13.9144C17.609 12.8983 17.2042 11.7664 17.0018 10.6345L16.7005 11.1978C14.9825 14.4777 14.9825 18.5525 16.7005 21.9482L22.2643 32.6985C23.9823 35.9784 23.9823 40.169 22.2643 43.4488L21.9583 44.0122C21.7559 42.8803 21.3511 41.7484 20.8474 40.7323L13.8622 27.2707C12.9538 25.4597 12.5489 23.4223 12.5489 21.3849C5.15891 23.5381 0 28.1762 0 33.4935C0 40.9639 9.91301 46.9603 22.156 46.9603C34.399 46.9603 44.312 40.9639 44.312 33.4935C44.4155 28.4026 39.3555 23.7645 31.8713 21.6112ZM52.8129 44.586C52.9164 42.6644 53.1188 41.4167 53.6225 39.8321C55.9478 41.0745 58.9838 41.6431 61.2102 41.6431C65.0559 41.6431 67.2823 40.2848 67.2823 37.4577C67.2823 34.7412 65.6631 33.4987 61.8174 31.5719L59.6946 30.6664C55.7501 28.7448 53.1188 26.2546 53.1188 21.3901C53.1188 16.0729 56.4561 12.6772 63.1354 12.6772C65.8655 12.6772 68.3979 13.1299 70.7231 14.0355C70.6243 15.8465 70.3183 17.3153 69.9135 18.6736C67.6871 17.7681 64.957 17.3153 63.0319 17.3153C59.3886 17.3153 57.7694 18.9 57.7694 21.3901C57.7694 23.7645 59.3886 25.2386 62.3211 26.5968L64.5475 27.6181C69.81 30.1083 72.0317 32.8249 72.0317 37.3472C72.0317 42.6644 68.3885 46.4023 61.3091 46.4023C57.9718 46.397 55.1429 45.8284 52.8129 44.586ZM94.3948 22.2904V45.6021H90.1444L89.942 42.775C88.7275 44.8124 87.0095 46.1707 84.0723 46.1707C78.6074 46.1707 74.8653 41.6431 74.8653 33.8357C74.8653 25.6861 78.8098 20.9374 86.5011 20.9374C89.5419 21.0479 92.0695 21.3849 94.3948 22.2904ZM89.8431 40.2848V25.686C88.9299 25.4597 87.8191 25.4597 86.5058 25.4597C81.7517 25.4597 79.5253 28.7395 79.5253 33.9462C79.5253 38.7002 81.2434 42.0958 85.2914 42.0958C87.2119 41.98 88.6287 41.3009 89.8431 40.2848ZM117.869 29.9872V45.6021H113.317V30.8927C113.317 27.1601 112.201 25.4597 107.65 25.4597C106.539 25.4597 105.325 25.5702 104.007 25.7966V45.6021H99.4549V22.2904C102.387 21.4954 105.626 20.9321 107.753 20.9321C115.44 21.0479 117.869 24.3278 117.869 29.9872ZM130.615 41.8695C131.929 41.8695 133.247 41.6431 134.155 41.1903C134.056 42.5486 133.854 44.1332 133.651 45.4915C132.437 46.0548 131.02 46.2865 129.806 46.2865C125.353 46.2865 122.519 44.0227 122.519 38.3632V13.8091C123.936 13.2458 125.654 13.0141 127.071 13.0141V21.8429H134.357C134.254 23.4275 134.155 24.8963 133.953 26.2546H127.071V37.6841C127.076 40.627 128.394 41.8695 130.615 41.8695ZM155.205 22.2904V45.6021H150.954L150.752 42.775C149.538 44.8124 147.82 46.1707 144.882 46.1707C139.418 46.1707 135.675 41.6431 135.675 33.8357C135.675 25.6861 139.62 20.9374 147.311 20.9374C150.347 21.0479 152.776 21.3849 155.205 22.2904ZM150.55 40.2848V25.686C149.637 25.4597 148.526 25.4597 147.212 25.4597C142.458 25.4597 140.232 28.7395 140.232 33.9462C140.232 38.7002 141.95 42.0958 145.998 42.0958C147.918 41.98 149.434 41.3009 150.55 40.2848ZM178.674 29.9872V45.6021H174.019V30.8927C174.019 27.1601 172.903 25.4597 168.352 25.4597C167.241 25.4597 166.026 25.5702 164.708 25.7966V45.6021H160.157V22.2904C163.089 21.4954 166.328 20.9321 168.455 20.9321C176.147 21.0479 178.674 24.3278 178.674 29.9872ZM201.847 13.0141V45.6021H197.596L197.394 42.6591C196.18 44.8071 194.462 46.1654 191.426 46.1654C185.961 46.1654 182.219 41.6378 182.219 33.8304C182.219 25.6808 186.163 20.9321 193.854 20.9321C195.069 20.9321 196.18 21.0427 197.295 21.269V13.5722C198.707 13.1247 200.327 13.0141 201.847 13.0141ZM197.291 40.2848V25.9124C196.076 25.686 194.862 25.4597 193.647 25.4597C189.096 25.4597 186.968 28.629 186.968 33.9462C186.968 38.7002 188.686 42.0958 192.734 42.0958C194.56 41.98 196.081 41.3009 197.291 40.2848ZM224.911 35.6467H210.24C210.847 39.8321 212.97 41.7589 217.121 41.7589C219.649 41.7589 222.181 41.1956 224.408 39.9479C224.205 41.3061 224.003 43.1172 223.697 44.586C221.574 45.6021 219.447 46.0548 216.919 46.0548C209.228 46.0548 205.589 41.3009 205.589 33.3829C205.589 26.481 208.423 20.9374 215.704 20.9374C222.28 20.9374 225.114 25.6913 225.114 31.5771C225.118 33.1565 225.118 34.2884 224.911 35.6467ZM210.244 31.3455H220.562C220.562 27.4971 218.74 25.2333 215.606 25.2333C212.268 25.3491 210.546 27.3865 210.244 31.3455ZM241 21.2743C241 22.8589 240.798 24.67 240.595 25.686C239.48 25.5702 238.468 25.4597 237.154 25.4597C236.043 25.4597 234.928 25.5702 233.817 25.686V45.6021H229.265V22.2904C231.186 21.4954 234.528 20.9321 237.056 20.9321C238.369 21.0479 239.988 21.0479 241 21.2743Z" fill="#F5F5F5"/>
</svg>
