<svg width="52" height="54" viewBox="0 0 52 54" fill="none" xmlns="http://www.w3.org/2000/svg">
<path d="M12.3508 42.0883L26.8189 50.6743C27.1786 50.8877 27.5857 51 28 51C28.4143 51 28.8214 50.8877 29.1811 50.6743L43.6492 42.0883C43.9666 41.8999 44.2381 41.6382 44.4425 41.3233C44.6469 41.0085 44.7788 40.649 44.8279 40.2726L47.9782 16.2685C48.0522 15.7046 47.9367 15.1315 47.6513 14.6457C47.3659 14.16 46.928 13.7913 46.4114 13.6019L28.7906 7.14074C28.2782 6.95309 27.7194 6.95309 27.2071 7.14074L9.58863 13.6044C9.07205 13.7938 8.63413 14.1624 8.34872 14.6482C8.0633 15.1339 7.94784 15.7071 8.02181 16.2709L11.1721 40.2751C11.2212 40.6514 11.3531 41.011 11.5575 41.3258C11.7619 41.6407 12.0334 41.8999 12.3508 42.0883Z" stroke="#C4CF87" stroke-width="2" stroke-linecap="round" stroke-linejoin="round"/>
<path d="M22 36L28.5 18L35 36" stroke="#C4CF87" stroke-width="2" stroke-linecap="round" stroke-linejoin="round"/>
<path d="M24 31H32.6667" stroke="#C4CF87" stroke-width="2" stroke-linecap="round" stroke-linejoin="round"/>
</svg>
