<svg width="50" height="50" viewBox="0 0 50 50" fill="none" xmlns="http://www.w3.org/2000/svg">
<path d="M19.3749 0.000482692L18.7696 7.30514C18.1348 7.52902 17.5155 7.79845 16.9141 8.08629L11.3088 3.34024L3.34029 11.3087L8.08638 16.9139C7.79805 17.5153 7.5291 18.1346 7.30522 18.7694L0 19.3752V30.6253L7.30472 31.2311C7.5286 31.8659 7.79804 32.4851 8.08588 33.0865L3.33979 38.6918L11.3083 46.6602L16.9136 41.9142C17.515 42.2025 18.1343 42.4715 18.7691 42.6953L19.3749 50H30.6251L31.2304 42.6953C31.8652 42.4715 32.4845 42.202 33.0859 41.9142L38.6912 46.6602L46.6597 38.6918L41.9136 33.0865C42.2019 32.4852 42.4709 31.8659 42.6948 31.2311L50 30.6248V19.3747L42.6953 18.7689C42.4714 18.1341 42.202 17.5149 41.9141 16.9135L46.6602 11.3082L38.6917 3.33976L33.0864 8.08581C32.485 7.79748 31.8657 7.52853 31.2309 7.30465L30.6247 0L19.3749 0.000482692ZM25 11.8753C32.2267 11.8753 38.125 17.7737 38.125 25.0002C38.125 32.2267 32.2266 38.125 25 38.125C17.7734 38.125 11.875 32.2267 11.875 25.0002C11.875 17.7737 17.7734 11.8753 25 11.8753ZM25 15.6254C19.8004 15.6254 15.6252 19.8006 15.6252 25.0002C15.6252 30.1997 19.8004 34.3749 25 34.3749C30.2001 34.3749 34.3748 30.1997 34.3748 25.0002C34.3748 19.8001 30.1996 15.6254 25 15.6254Z" fill="#C4CF87"/>
</svg>
