<svg width="41" height="41" viewBox="0 0 41 41" fill="none" xmlns="http://www.w3.org/2000/svg">
<g clip-path="url(#clip0_353_284)">
<mask id="mask0_353_284" style="mask-type:luminance" maskUnits="userSpaceOnUse" x="0" y="0" width="41" height="41">
<path d="M41 0H0V41H41V0Z" fill="white"/>
</mask>
<g mask="url(#mask0_353_284)">
<path fill-rule="evenodd" clip-rule="evenodd" d="M20.517 0C9.17161 0 0 9.23926 0 20.6694C0 29.8061 5.87656 37.5402 14.0289 40.2775C15.0482 40.4833 15.4216 39.8328 15.4216 39.2856C15.4216 38.8064 15.3879 37.1639 15.3879 35.4526C9.68061 36.6848 8.49211 32.9887 8.49211 32.9887C7.5749 30.5932 6.2159 29.9775 6.2159 29.9775C4.3479 28.7113 6.35197 28.7113 6.35197 28.7113C8.42407 28.8482 9.5114 30.8329 9.5114 30.8329C11.3454 33.9811 14.3006 33.0915 15.4895 32.5439C15.6593 31.2093 16.2031 30.2853 16.7805 29.7722C12.2285 29.293 7.43925 27.5136 7.43925 19.5742C7.43925 17.3156 8.25399 15.4678 9.54497 14.0306C9.34125 13.5174 8.62777 11.3954 9.74903 8.55508C9.74903 8.55508 11.4815 8.00747 15.3875 10.6767C17.0598 10.2243 18.7845 9.99418 20.517 9.99221C22.2493 9.99221 24.0152 10.2321 25.646 10.6767C29.5525 8.00747 31.2849 8.55508 31.2849 8.55508C32.4061 11.3954 31.6922 13.5174 31.4885 14.0306C32.8135 15.4678 33.5946 17.3156 33.5946 19.5742C33.5946 27.5136 28.8054 29.2585 24.2194 29.7722C24.967 30.4223 25.612 31.654 25.612 33.6047C25.612 36.3765 25.5784 38.6011 25.5784 39.2852C25.5784 39.8328 25.9521 40.4833 26.971 40.278C35.1233 37.5399 40.9999 29.8061 40.9999 20.6694C41.0335 9.23926 31.8283 0 20.517 0Z" fill="#C4CF87"/>
</g>
</g>
<defs>
<clipPath id="clip0_353_284">
<rect width="41" height="41" fill="white"/>
</clipPath>
</defs>
</svg>
