<svg width="51" height="51" viewBox="0 0 51 51" fill="none" xmlns="http://www.w3.org/2000/svg">
<g clip-path="url(#clip0_344_241)">
<path d="M40.375 6.375H10.625C8.27779 6.375 6.375 8.27779 6.375 10.625V40.375C6.375 42.7222 8.27779 44.625 10.625 44.625H40.375C42.7222 44.625 44.625 42.7222 44.625 40.375V10.625C44.625 8.27779 42.7222 6.375 40.375 6.375ZM18.0625 37.1875C18.0625 37.7743 17.5868 38.25 17 38.25H13.8125C13.2257 38.25 12.75 37.7743 12.75 37.1875V22.3125C12.75 21.7257 13.2257 21.25 13.8125 21.25H17C17.5868 21.25 18.0625 21.7257 18.0625 22.3125V37.1875ZM15.4062 19.125C13.6458 19.125 12.2188 17.6979 12.2188 15.9375C12.2188 14.1771 13.6458 12.75 15.4062 12.75C17.1667 12.75 18.5938 14.1771 18.5938 15.9375C18.5938 17.6979 17.1667 19.125 15.4062 19.125ZM38.25 37.1875C38.25 37.7743 37.7743 38.25 37.1875 38.25H34C33.4132 38.25 32.9375 37.7743 32.9375 37.1875V29.2188C32.9375 27.4583 31.5104 26.0312 29.75 26.0312C27.9896 26.0312 26.5625 27.4583 26.5625 29.2188V37.1875C26.5625 37.7743 26.0868 38.25 25.5 38.25H22.3125C21.7257 38.25 21.25 37.7743 21.25 37.1875V22.3125C21.25 21.7257 21.7257 21.25 22.3125 21.25H25.5C26.0868 21.25 26.5625 21.7257 26.5625 22.3125V23.5875C27.8551 21.6206 30.1262 20.5259 32.47 20.74C35.8224 21.1533 38.319 24.0354 38.25 27.4125V37.1875Z" fill="#C4CF87"/>
</g>
<defs>
<clipPath id="clip0_344_241">
<rect width="51" height="51" fill="white"/>
</clipPath>
</defs>
</svg>
