<svg width="33" height="35" viewBox="0 0 33 35" fill="none" xmlns="http://www.w3.org/2000/svg">
<path d="M11.3333 12.5431V25.8364C11.3332 26.4159 11.1743 26.9851 10.8726 27.4871C10.5709 27.9891 10.137 28.4061 9.61429 28.6964C9.09162 28.9867 8.4986 29.14 7.8947 29.1409C7.2908 29.1419 6.69725 28.9905 6.17356 28.702L3.47311 27.2146C2.71748 26.7717 2.09317 26.1498 1.6601 25.4087C1.22703 24.6676 0.999723 23.8321 1 22.9824V12.0176C1.00002 11.1682 1.22746 10.3331 1.66052 9.59225C2.09358 8.85145 2.71773 8.22983 3.47311 7.78701L13.8064 1.72703C14.6175 1.25157 15.5495 1 16.5 1C17.4505 1 18.3825 1.25157 19.1936 1.72703L29.5269 7.78701C30.2825 8.22998 30.9068 8.85185 31.3399 9.59297C31.773 10.3341 32.0003 11.1696 32 12.0192V22.9824C32 23.8318 31.7725 24.6669 31.3395 25.4078C30.9064 26.1486 30.2823 26.7702 29.5269 27.213L19.1936 33.273C18.3825 33.7484 17.4505 34 16.5 34C15.5495 34 14.6175 33.7484 13.8064 33.273" stroke="#C4CF87" stroke-width="2" stroke-linecap="round" stroke-linejoin="round"/>
<path d="M25 13H18.7C17.9839 13 17.2972 13.2371 16.7908 13.659C16.2845 14.081 16 14.6533 16 15.25C16 15.8467 16.2845 16.419 16.7908 16.841C17.2972 17.2629 17.9839 17.5 18.7 17.5H22.3C23.0161 17.5 23.7028 17.7371 24.2092 18.159C24.7155 18.581 25 19.1533 25 19.75C25 20.3467 24.7155 20.919 24.2092 21.341C23.7028 21.7629 23.0161 22 22.3 22H16" stroke="#C4CF87" stroke-width="2" stroke-linecap="round" stroke-linejoin="round"/>
</svg>
